<svg width="1422" height="333" viewBox="0 0 1422 333" fill="none" xmlns="http://www.w3.org/2000/svg">
<path d="M4.86408 329.79L16.0503 332.209M4.86408 329.79L38.0135 329.79M4.86408 329.79L-6.69396 327.292M4.86408 329.79L-18.6126 329.79M16.0503 332.209L11.9799 332.208L7.95155 332.203L4.00722 332.188L0.186477 332.159L-3.46849 332.112L-6.91889 332.041L-10.1234 331.943L-13.0978 331.817L-15.6501 331.644L-17.9739 331.443L-18.6126 331.372L-18.6126 329.79M16.0503 332.209L48.6667 332.209M48.6667 332.209L81.283 332.209M48.6667 332.209L38.0135 329.79M81.283 332.209L113.9 332.209M81.283 332.209L71.1629 329.79M113.9 332.209L146.517 332.209M113.9 332.209L104.312 329.79M146.517 332.209L179.133 332.209M146.517 332.209L137.461 329.79M179.133 332.209L211.75 332.209M179.133 332.209L170.61 329.79M211.75 332.209L244.367 332.209M211.75 332.209L203.76 329.79M244.367 332.209L276.983 332.209M244.367 332.209L236.909 329.79M276.983 332.209L309.6 332.209M276.983 332.209L270.059 329.79M309.6 332.209L342.217 332.209M309.6 332.209L303.208 329.79M342.217 332.209L374.833 332.209M342.217 332.209L336.357 329.79M374.833 332.209L407.45 332.209M374.833 332.209L369.507 329.79M407.45 332.209L440.067 332.209M407.45 332.209L406.266 331.612L404.472 330.707L402.656 329.79M440.067 332.209L472.683 332.209M440.067 332.209L439.015 331.612L435.806 329.79M472.683 332.209L505.3 332.209M472.683 332.209L468.955 329.79M505.3 332.209L537.917 332.209M505.3 332.209L504.114 331.311L502.912 330.403L502.509 330.097L502.104 329.79M537.917 332.209L570.533 332.209M537.917 332.209L536.928 331.311L536.595 331.01L536.262 330.707L535.253 329.79M570.533 332.209L603.15 332.209M570.533 332.209L568.402 329.79M603.15 332.209L602.953 331.911L602.756 331.612L601.755 330.097L601.552 329.79M603.15 332.209L635.766 332.209M635.766 332.209L668.384 332.209M635.766 332.209L634.701 329.79M668.384 332.209L701 332.209M668.384 332.209L668.186 331.311L667.851 329.79M701 332.209L733.616 332.209M701 332.209L701 329.79M733.616 332.209L766.234 332.209M733.616 332.209L733.814 331.311L734.149 329.79M766.234 332.209L798.85 332.209M766.234 332.209L767.299 329.79M798.85 332.209L799.047 331.911L799.244 331.612L800.245 330.097L800.448 329.79M798.85 332.209L831.466 332.209M831.466 332.209L864.084 332.209M831.466 332.209L833.327 330.097L833.598 329.79M864.084 332.209L896.7 332.209M864.084 332.209L865.072 331.311L865.404 331.01L866.073 330.403L866.409 330.097L866.747 329.79M896.7 332.209L929.317 332.209M896.7 332.209L897.886 331.311L899.087 330.403L899.491 330.097L899.896 329.79M929.317 332.209L961.933 332.209M929.317 332.209L933.045 329.79M961.933 332.209L994.55 332.209M961.933 332.209L962.985 331.612L966.194 329.79M994.55 332.209L1027.17 332.209M994.55 332.209L999.344 329.79M1027.17 332.209L1059.78 332.209M1027.17 332.209L1032.49 329.79M1059.78 332.209L1092.4 332.209M1059.78 332.209L1065.64 329.79M1092.4 332.209L1125.02 332.209M1092.4 332.209L1098.79 329.79M1125.02 332.209L1157.63 332.209M1125.02 332.209L1131.94 329.79M1157.63 332.209L1190.25 332.209M1157.63 332.209L1165.09 329.79M1190.25 332.209L1222.87 332.209M1190.25 332.209L1198.24 329.79M1222.87 332.209L1255.48 332.209M1222.87 332.209L1231.39 329.79M1255.48 332.209L1288.1 332.209M1255.48 332.209L1264.54 329.79M1288.1 332.209L1320.72 332.209M1288.1 332.209L1297.69 329.79M1320.72 332.209L1353.33 332.209M1320.72 332.209L1330.84 329.79M1353.33 332.209L1385.95 332.209M1353.33 332.209L1363.99 329.79M1385.95 332.209L1390.02 332.208L1394.05 332.203L1397.99 332.188L1401.81 332.159L1405.47 332.112L1408.92 332.041L1412.12 331.943L1415.1 331.818L1417.65 331.644L1419.97 331.443L1420.61 331.372L1420.61 329.79M1385.95 332.209L1397.14 329.79M1330.84 329.79L1297.69 329.79M1330.84 329.79L1363.99 329.79M1330.84 329.79L1341.29 327.292M1297.69 329.79L1307.6 327.292M1297.69 329.79L1264.54 329.79M1198.24 329.79L1165.09 329.79M1198.24 329.79L1231.39 329.79M1198.24 329.79L1200.28 329.173L1206.5 327.292M1165.09 329.79L1172.8 327.292M1165.09 329.79L1131.94 329.79M1065.64 329.79L1032.49 329.79M1065.64 329.79L1098.79 329.79M1065.64 329.79L1067.14 329.173L1067.89 328.863L1071.7 327.292M1032.49 329.79L1033.17 329.483L1033.85 329.173L1038 327.292M1032.49 329.79L999.344 329.79M933.045 329.79L933.52 329.483L936.898 327.292M933.045 329.79L899.896 329.79M933.045 329.79L966.194 329.79M899.896 329.79L900.711 329.173L901.122 328.863L901.533 328.551L903.198 327.292M899.896 329.79L866.747 329.79M800.448 329.79L767.299 329.79M800.448 329.79L833.598 329.79M800.448 329.79L802.099 327.292M767.299 329.79L767.434 329.483L767.57 329.173L767.707 328.863L768.121 327.924L768.399 327.292M767.299 329.79L734.149 329.79M667.851 329.79L634.701 329.79M667.851 329.79L701 329.79M667.851 329.79L667.3 327.292M634.701 329.79L634.566 329.483L634.43 329.173L634.293 328.863L633.601 327.292M634.701 329.79L601.552 329.79M535.253 329.79L502.104 329.79M535.253 329.79L568.402 329.79M535.253 329.79L534.574 329.173L533.198 327.924L532.851 327.609L532.501 327.292M502.104 329.79L501.289 329.173L500.878 328.863L500.466 328.551L498.802 327.292M502.104 329.79L468.955 329.79M402.656 329.79L369.507 329.79M402.656 329.79L435.806 329.79M402.656 329.79L401.433 329.173L400.817 328.863L397.703 327.292M369.507 329.79L368.828 329.483L368.148 329.173L364.003 327.292M369.507 329.79L336.357 329.79M270.059 329.79L236.909 329.79M270.059 329.79L303.208 329.79M270.059 329.79L268.292 329.173L267.403 328.863L262.904 327.292M236.909 329.79L229.204 327.292M236.909 329.79L203.76 329.79M137.461 329.79L104.312 329.79M137.461 329.79L170.61 329.79M137.461 329.79L128.105 327.292M104.312 329.79L94.4049 327.292M104.312 329.79L71.1629 329.79M1420.73 307.171L1420.61 307.171M1387.36 307.171L1374.71 310.363M1387.36 307.171L1400.5 303.857M1387.36 307.171L1349.23 307.171M1387.36 307.171L1420.61 307.171M1374.71 310.363L1412.14 310.363M1374.71 310.363L1362.51 313.44M1374.71 310.363L1337.28 310.363M1412.14 310.363L1399.26 313.44M1412.14 310.363L1420.61 310.363M1412.14 310.363L1420.61 308.338M1374.86 319.271L1339.39 319.271M1374.86 319.271L1363.29 322.037M1374.86 319.271L1410.32 319.271M1374.86 319.271L1386.84 316.408M1339.39 319.271L1328.43 322.037M1339.39 319.271L1350.74 316.408M1339.39 319.271L1303.93 319.271M1363.29 322.037L1328.43 322.037M1363.29 322.037L1352.1 324.708M1363.29 322.037L1398.14 322.037M1328.43 322.037L1293.57 322.037M1328.43 322.037L1317.84 324.708M1420.98 256.784L1420.61 256.784M1390.21 256.784L1373.89 262.076M1390.21 256.784L1407.34 251.228M1390.21 256.784L1340.98 256.784M1390.21 256.784L1420.61 256.784M1373.89 262.076L1358.32 267.124M1373.89 262.076L1325.83 262.076M1373.89 262.076L1420.61 262.076M1405.28 267.124L1358.32 267.124M1405.28 267.124L1389.35 271.944M1405.28 267.124L1420.61 267.124M1405.28 267.124L1420.61 262.482M1374.13 276.55L1329.26 276.55M1374.13 276.55L1359.57 280.957M1374.13 276.55L1419.01 276.55M1374.13 276.55L1389.35 271.944M1329.26 276.55L1315.67 280.957M1329.26 276.55L1343.46 271.944M1329.26 276.55L1284.38 276.55M1359.57 280.957L1315.67 280.957M1359.57 280.957L1403.48 280.957M1359.57 280.957L1345.63 285.178M1315.67 280.957L1302.66 285.178M1315.67 280.957L1271.76 280.957M1319.44 293.105L1278.21 293.105M1319.44 293.105L1307.13 296.831M1319.44 293.105L1360.67 293.105M1319.44 293.105L1332.27 289.223M1278.21 293.105L1266.72 296.831M1278.21 293.105L1290.18 289.223M1278.21 293.105L1236.98 293.105M1307.13 296.831L1266.72 296.831M1307.13 296.831L1347.54 296.831M1307.13 296.831L1295.3 300.412M1266.72 296.831L1255.68 300.412M1266.72 296.831L1226.31 296.831M1272.97 307.171L1234.84 307.171M1272.97 307.171L1262.42 310.363M1272.97 307.171L1311.1 307.171M1272.97 307.171L1283.92 303.857M1234.84 307.171L1224.99 310.363M1234.84 307.171L1245.06 303.857M1234.84 307.171L1196.71 307.171M1262.42 310.363L1224.99 310.363M1262.42 310.363L1299.85 310.363M1262.42 310.363L1252.26 313.44M1224.99 310.363L1215.51 313.44M1224.99 310.363L1187.57 310.363M1232.99 319.271L1197.53 319.271M1232.99 319.271L1223.86 322.037M1232.99 319.271L1268.46 319.271M1232.99 319.271L1242.45 316.408M1197.53 319.271L1189 322.037M1197.53 319.271L1206.36 316.408M1197.53 319.271L1162.06 319.271M1223.86 322.037L1189 322.037M1223.86 322.037L1215.03 324.708M1223.86 322.037L1258.71 322.037M1189 322.037L1154.14 322.037M1189 322.037L1180.76 324.708M1395.39 165.026L1372.42 175.454M1395.39 165.026L1419.99 153.858M1395.39 165.026L1325.95 165.026M1395.39 165.026L1420.61 165.026M1372.42 175.454L1350.92 185.215M1372.42 175.454L1305.28 175.454M1372.42 175.454L1420.61 175.454M1372.89 202.975L1311.81 202.975M1372.89 202.975L1353.26 211.076M1372.89 202.975L1393.73 194.37M1372.89 202.975L1420.61 202.975M1311.81 202.975L1293.96 211.076M1311.81 202.975L1330.76 194.37M1311.81 202.975L1250.73 202.975M1353.26 211.076L1293.96 211.076M1353.26 211.076L1412.56 211.076M1353.26 211.076L1334.75 218.718M1293.96 211.076L1277.13 218.718M1293.96 211.076L1234.67 211.076M1300.7 232.77L1246.18 232.77M1300.7 232.77L1285.01 239.245M1300.7 232.77L1355.22 232.77M1300.7 232.77L1317.25 225.938M1246.18 232.77L1231.92 239.245M1246.18 232.77L1261.23 225.938M1246.18 232.77L1191.66 232.77M1285.01 239.245L1231.92 239.245M1285.01 239.245L1338.11 239.245M1285.01 239.245L1270.13 245.389M1231.92 239.245L1218.39 245.389M1231.92 239.245L1178.83 239.245M1242.52 256.784L1193.29 256.784M1242.52 256.784L1229.7 262.076M1242.52 256.784L1291.75 256.784M1242.52 256.784L1255.98 251.228M1193.29 256.784L1181.64 262.076M1193.29 256.784L1205.53 251.228M1193.29 256.784L1144.06 256.784M1229.7 262.076L1181.64 262.076M1229.7 262.076L1277.76 262.076M1229.7 262.076L1217.47 267.124M1181.64 262.076L1170.52 267.124M1181.64 262.076L1133.57 262.076M1194.63 276.55L1149.76 276.55M1194.63 276.55L1183.95 280.957M1194.63 276.55L1239.51 276.55M1194.63 276.55L1205.79 271.944M1149.76 276.55L1140.05 280.957M1149.76 276.55L1159.9 271.944M1149.76 276.55L1104.88 276.55M1183.95 280.957L1140.05 280.957M1183.95 280.957L1227.86 280.957M1183.95 280.957L1173.73 285.178M1140.05 280.957L1130.75 285.178M1140.05 280.957L1096.14 280.957M1154.52 293.105L1113.3 293.105M1154.52 293.105L1145.5 296.831M1154.52 293.105L1195.75 293.105M1154.52 293.105L1163.93 289.223M1113.3 293.105L1112.25 293.579L1105.09 296.831M1113.3 293.105L1121.84 289.223M1113.3 293.105L1072.07 293.105M1145.5 296.831L1105.09 296.831M1145.5 296.831L1185.9 296.831M1145.5 296.831L1136.82 300.412M1105.09 296.831L1097.2 300.412M1105.09 296.831L1064.68 296.831M1120.44 307.171L1082.31 307.171M1120.44 307.171L1112.71 310.363M1120.44 307.171L1158.58 307.171M1120.44 307.171L1128.48 303.857M1082.31 307.171L1075.28 310.363M1082.31 307.171L1085.02 305.943L1089.61 303.857M1082.31 307.171L1044.18 307.171M1112.71 310.363L1075.28 310.363M1112.71 310.363L1150.14 310.363M1112.71 310.363L1105.26 313.44M1075.28 310.363L1068.51 313.44M1075.28 310.363L1037.85 310.363M1091.13 319.271L1055.66 319.271M1091.13 319.271L1084.43 322.037M1091.13 319.271L1126.59 319.271M1091.13 319.271L1098.07 316.408M1055.66 319.271L1051.07 321.354L1050.32 321.696L1049.57 322.037M1055.66 319.271L1061.97 316.408M1055.66 319.271L1020.2 319.271M1084.43 322.037L1049.57 322.037M1084.43 322.037L1077.96 324.708M1084.43 322.037L1119.29 322.037M1049.57 322.037L1014.71 322.037M1049.57 322.037L1043.69 324.708M1370.23 46.2279L1274.63 46.2279M1370.23 46.2279L1340.13 65.7534M1370.23 46.2279L1403.31 24.7719M1370.23 46.2279L1420.61 46.2275M1274.63 46.2279L1248.82 65.7534M1274.63 46.2279L1302.98 24.7719M1274.63 46.2279L1179.02 46.2279M1340.13 65.7534L1248.82 65.7534M1340.13 65.7534L1312.62 83.5979M1340.13 65.7534L1420.61 65.7534M1248.82 65.7534L1225.24 83.5979M1248.82 65.7534L1157.52 65.7534M1264.13 115.043L1183.69 115.043M1264.13 115.043L1242.67 128.968M1264.13 115.043L1344.58 115.043M1264.13 115.043L1287.37 99.9695M1183.69 115.043L1165.28 128.968M1183.69 115.043L1203.61 99.9695M1183.69 115.043L1103.24 115.043M1242.67 128.968L1165.28 128.968M1242.67 128.968L1320.05 128.968M1242.67 128.968L1222.77 141.87M1165.28 128.968L1148.23 141.87M1165.28 128.968L1087.9 128.968M1187.07 165.026L1117.63 165.026M1187.07 165.026L1170.99 175.454M1187.07 165.026L1256.51 165.026M1187.07 165.026L1204.29 153.858M1117.63 165.026L1103.85 175.454M1117.63 165.026L1132.39 153.858M1117.63 165.026L1048.2 165.026M1170.99 175.454L1103.85 175.454M1170.99 175.454L1238.14 175.454M1170.99 175.454L1155.95 185.215M1103.85 175.454L1090.95 185.215M1103.85 175.454L1036.71 175.454M1128.57 202.975L1067.48 202.975M1128.57 202.975L1116.07 211.076M1128.57 202.975L1189.65 202.975M1128.57 202.975L1141.83 194.37M1067.48 202.975L1056.78 211.076M1067.48 202.975L1078.85 194.37M1067.48 202.975L1006.4 202.975M1116.07 211.076L1056.78 211.076M1116.07 211.076L1175.37 211.076M1116.07 211.076L1104.29 218.718M1056.78 211.076L1046.68 218.718M1056.78 211.076L997.482 211.076M1082.63 232.77L1028.11 232.77M1082.63 232.77L1072.65 239.244M1082.63 232.77L1137.15 232.77M1082.63 232.77L1093.16 225.938M1028.11 232.77L1019.55 239.244M1028.11 232.77L1037.14 225.938M1028.11 232.77L973.591 232.77M1072.65 239.244L1019.55 239.244M1072.65 239.244L1125.74 239.244M1072.65 239.244L1063.17 245.389M1019.55 239.244L1011.43 245.389M1019.55 239.244L966.461 239.244M1045.6 256.784L996.375 256.784M1045.6 256.784L1037.44 262.076M1045.6 256.784L1094.83 256.784M1045.6 256.784L1054.17 251.228M996.375 256.784L989.381 262.076M996.375 256.784L1003.72 251.228M996.375 256.784L947.146 256.784M1037.44 262.076L989.381 262.076M1037.44 262.076L1085.51 262.076M1037.44 262.076L1029.66 267.124M989.381 262.076L982.71 267.124M989.381 262.076L941.318 262.076M1015.13 276.55L970.253 276.55M1015.13 276.55L1008.33 280.957M1015.13 276.55L1060 276.55M1015.13 276.55L1022.23 271.944M970.253 276.55L964.43 280.957M970.253 276.55L976.341 271.944M970.253 276.55L925.378 276.55M1008.33 280.957L964.43 280.957M1008.33 280.957L1052.24 280.957M1008.33 280.957L1001.83 285.178M964.43 280.957L958.852 285.178M964.43 280.957L920.524 280.957M989.607 293.105L948.376 293.105M989.607 293.105L983.861 296.831M989.607 293.105L1030.84 293.105M989.607 293.105L995.591 289.223M948.376 293.105L949.007 292.628L953.506 289.223M948.376 293.105L943.452 296.831M948.376 293.105L907.147 293.105M983.861 296.831L943.452 296.831M983.861 296.831L1024.27 296.831M983.861 296.831L978.339 300.412M943.452 296.831L938.719 300.412M943.452 296.831L903.043 296.831M967.919 307.171L929.788 307.171M967.919 307.171L962.997 310.363M967.919 307.171L1006.05 307.171M967.919 307.171L973.029 303.857M929.788 307.171L925.569 310.363M929.788 307.171L931.411 305.943L932.506 305.114L934.168 303.857M929.788 307.171L891.657 307.171M962.997 310.363L925.569 310.363M962.997 310.363L1000.43 310.363M962.997 310.363L958.254 313.44M925.569 310.363L924.027 311.53L923.01 312.3L921.503 313.44M925.569 310.363L888.141 310.363M949.263 319.271L913.798 319.271M949.263 319.271L946.052 321.354L945 322.037M949.263 319.271L984.73 319.271M949.263 319.271L953.118 316.771L953.678 316.408M913.798 319.271L911.044 321.354L910.593 321.696L910.143 322.037M913.798 319.271L915.673 317.852L917.582 316.407M913.798 319.271L878.331 319.271M945 322.037L910.143 322.037M945 322.037L940.881 324.708M945 322.037L979.857 322.037M910.143 322.037L875.286 322.037M910.143 322.037L906.612 324.708M987.814 46.2279L892.209 46.2279M987.814 46.2279L974.912 65.7533M987.814 46.2279L1083.42 46.2279M987.814 46.2279L1001.99 24.7718M892.209 46.2279L883.608 65.7533M892.209 46.2279L901.66 24.7718M892.209 46.2279L796.604 46.2279M974.912 65.7533L883.608 65.7533M974.912 65.7533L1066.22 65.7534M974.912 65.7533L963.121 83.5978M883.608 65.7533L875.747 83.5978M883.608 65.7533L792.304 65.7533M942.343 115.043L861.896 115.043M942.343 115.043L933.142 128.968M942.343 115.043L1022.79 115.043M942.343 115.043L952.304 99.9695M861.896 115.043L855.762 128.968M861.896 115.043L868.535 99.9695M861.896 115.043L781.447 115.043M933.142 128.968L855.762 128.968M933.142 128.968L1010.52 128.968M933.142 128.968L924.617 141.87M855.762 128.968L850.078 141.87M855.762 128.968L778.381 128.968M909.317 165.026L839.878 165.026M909.317 165.026L902.426 175.454M909.317 165.026L978.756 165.026M909.317 165.026L916.696 153.858M839.878 165.026L835.284 175.454M839.878 165.026L844.797 153.858M839.878 165.026L770.439 165.026M902.426 175.454L835.284 175.454M902.426 175.454L969.568 175.454M902.426 175.454L895.977 185.215M835.284 175.454L830.984 185.215M835.284 175.454L768.142 175.454M884.242 202.975L823.162 202.975M884.242 202.975L878.889 211.076M884.242 202.975L945.323 202.975M884.242 202.975L889.927 194.37M823.162 202.975L819.593 211.076M823.162 202.975L826.952 194.37M823.162 202.975L762.081 202.975M878.889 211.076L819.593 211.076M878.889 211.076L938.185 211.076M878.889 211.076L873.84 218.718M819.593 211.076L816.226 218.718M819.593 211.076L760.296 211.076M864.555 232.77L810.036 232.77M864.555 232.77L860.277 239.244M864.555 232.77L919.073 232.77M864.555 232.77L869.069 225.938M810.036 232.77L807.185 239.244M810.036 232.77L813.046 225.938M810.036 232.77L755.518 232.77M860.277 239.244L807.185 239.244M860.277 239.244L913.369 239.244M860.277 239.244L856.217 245.389M807.185 239.244L804.478 245.389M807.185 239.244L754.092 239.244M848.688 256.784L799.459 256.784M848.688 256.784L845.191 262.076M848.688 256.784L897.917 256.784M848.688 256.784L852.358 251.228M799.459 256.784L797.127 262.076M799.459 256.784L801.906 251.228M799.459 256.784L750.229 256.784M845.191 262.076L797.127 262.076M845.191 262.076L893.254 262.076M845.191 262.076L843.921 263.997L841.855 267.124M797.127 262.076L794.903 267.124M797.127 262.076L749.063 262.076M835.627 276.55L790.751 276.55M835.627 276.55L832.714 280.957M835.627 276.55L880.503 276.55M835.627 276.55L837.896 273.115L838.671 271.944M790.751 276.55L790.013 278.226L788.81 280.957M790.751 276.55L792.781 271.944M790.751 276.55L745.875 276.55M832.714 280.957L832.36 281.495L829.926 285.178M832.714 280.957L788.81 280.957M832.714 280.957L876.62 280.957M788.81 280.957L788.103 282.561L787.871 283.09L787.638 283.616L786.951 285.178M788.81 280.957L744.905 280.957M824.689 293.105L783.459 293.105M824.689 293.105L823.445 294.987L823.138 295.451L822.833 295.914L822.528 296.373L822.226 296.831M824.689 293.105L865.918 293.105M824.689 293.105L827.253 289.223M783.459 293.105L782.222 295.914L782.019 296.373L781.818 296.831M783.459 293.105L785.168 289.223M783.459 293.105L742.229 293.105M822.226 296.831L781.818 296.831M822.226 296.831L862.635 296.831M822.226 296.831L820.736 299.086L820.443 299.53L819.86 300.412M781.818 296.831L780.824 299.086L780.628 299.53L780.434 299.973L780.24 300.412M781.818 296.831L741.408 296.831M815.394 307.171L777.262 307.171M815.394 307.171L813.284 310.363M815.394 307.171L853.526 307.171M815.394 307.171L815.934 306.354L816.753 305.114L817.584 303.857M777.262 307.171L777.442 306.764L778.537 304.278L778.723 303.857M777.262 307.171L775.856 310.363M777.262 307.171L739.131 307.171M813.284 310.363L775.856 310.363M813.284 310.363L850.712 310.363M813.284 310.363L811.251 313.44M775.856 310.363L775.342 311.53L775.172 311.916L775.003 312.3L774.501 313.44M775.856 310.363L738.428 310.363M807.398 319.271L771.933 319.271M807.398 319.271L806.022 321.354L805.572 322.037M807.398 319.271L842.865 319.271M807.398 319.271L808.101 318.209L808.336 317.852L808.574 317.493L809.291 316.407M771.933 319.271L771.778 319.622L771.471 320.32L771.166 321.011L770.715 322.037M771.933 319.271L772.558 317.852L772.715 317.493L773.034 316.771L773.194 316.407M771.933 319.271L736.466 319.271M805.572 322.037L770.715 322.037M805.572 322.037L804.024 324.379L803.806 324.708M805.572 322.037L840.429 322.037M770.715 322.037L770.565 322.376L770.416 322.713L770.268 323.049L770.121 323.384L769.682 324.379L769.537 324.708M770.715 322.037L735.857 322.037M605.396 46.2278L509.791 46.2278M605.396 46.2278L609.696 65.7533M605.396 46.2278L701 46.2279M605.396 46.2278L600.67 24.7718M509.791 46.2278L518.392 65.7533M509.791 46.2278L500.34 24.7718M509.791 46.2278L414.186 46.2278M609.696 65.7533L518.392 65.7533M609.696 65.7533L701 65.7533M609.696 65.7533L613.626 83.5978M518.392 65.7533L526.253 83.5978M518.392 65.7533L427.088 65.7533M620.553 115.043L540.104 115.043M620.553 115.043L623.619 128.968M620.553 115.043L701 115.043M620.553 115.043L617.232 99.9695M540.104 115.043L546.238 128.968M540.104 115.043L533.464 99.9695M540.104 115.043L459.657 115.043M623.619 128.968L546.238 128.968M623.619 128.968L701 128.968M623.619 128.968L626.461 141.87M546.238 128.968L551.922 141.87M546.238 128.968L468.858 128.968M631.561 165.026L562.122 165.026M631.561 165.026L633.858 175.454M631.561 165.026L701 165.026M631.561 165.026L629.101 153.858M562.122 165.026L566.716 175.454M562.122 165.026L557.203 153.858M562.122 165.026L492.683 165.026M633.858 175.454L566.716 175.454M633.858 175.454L701 175.454M633.858 175.454L636.008 185.215M566.716 175.454L571.015 185.215M566.716 175.454L499.574 175.454M639.919 202.975L578.838 202.975M639.919 202.975L641.704 211.076M639.919 202.975L701 202.975M639.919 202.975L638.024 194.37M578.838 202.975L582.407 211.076M578.838 202.975L575.048 194.37M578.838 202.975L517.758 202.975M641.704 211.076L582.407 211.076M641.704 211.076L701 211.076M641.704 211.076L643.387 218.718M582.407 211.076L585.774 218.718M582.407 211.076L523.111 211.076M646.482 232.77L591.964 232.77M646.482 232.77L647.908 239.244M646.482 232.77L701 232.77M646.482 232.77L644.977 225.938M591.964 232.77L594.815 239.244M591.964 232.77L588.954 225.938M591.964 232.77L537.445 232.77M647.908 239.244L594.815 239.244M647.908 239.244L701 239.244M647.908 239.244L649.261 245.389M594.815 239.244L597.522 245.389M594.815 239.244L541.723 239.244M651.771 256.784L602.541 256.784M651.771 256.784L652.937 262.076M651.771 256.784L701 256.784M651.771 256.784L650.547 251.228M602.541 256.784L604.873 262.076M602.541 256.784L600.094 251.228M602.541 256.784L553.312 256.784M652.937 262.076L604.873 262.076M652.937 262.076L701 262.076M652.937 262.076L654.048 267.124M604.873 262.076L607.097 267.124M604.873 262.076L556.809 262.076M656.125 276.55L611.249 276.55M656.125 276.55L657.095 280.957M656.125 276.55L701 276.55M656.125 276.55L655.11 271.944M611.249 276.55L612.952 280.417L613.19 280.957M611.249 276.55L609.219 271.944M611.249 276.55L566.373 276.55M657.095 280.957L657.213 281.495L658.025 285.178M657.095 280.957L613.19 280.957M657.095 280.957L701 280.957M613.19 280.957L613.897 282.561L614.129 283.09L614.362 283.616L615.049 285.178M613.19 280.957L569.285 280.957M659.771 293.104L618.541 293.104M659.771 293.104L660.591 296.831M659.771 293.104L701 293.105M659.771 293.104L659.454 291.668L659.347 291.184L659.241 290.698L659.025 289.717L658.915 289.223M618.541 293.104L619.778 295.914L620.183 296.831M618.541 293.104L616.832 289.223M618.541 293.104L577.311 293.104M660.591 296.831L620.183 296.831M660.591 296.831L701 296.831M660.591 296.831L661.38 300.412M620.183 296.831L621.175 299.086L621.372 299.53L621.566 299.973L621.76 300.412M620.183 296.831L579.774 296.831M662.869 307.171L624.738 307.171M662.869 307.171L663.572 310.363M662.869 307.171L701 307.171M662.869 307.171L662.139 303.857M624.738 307.171L624.558 306.764L623.463 304.278L623.277 303.857M624.738 307.171L626.144 310.363M624.738 307.171L586.606 307.171M663.572 310.363L626.144 310.363M663.572 310.363L701 310.363M663.572 310.363L664.249 313.44M626.144 310.363L626.658 311.53L626.827 311.916L626.997 312.3L627.499 313.44M626.144 310.363L588.716 310.363M665.533 319.271L630.067 319.271M665.533 319.271L666.143 322.037M665.533 319.271L701 319.271M665.533 319.271L664.903 316.407M630.067 319.271L630.222 319.622L630.53 320.32L630.682 320.666L630.985 321.354L631.135 321.696L631.286 322.037M630.067 319.271L629.442 317.852L629.285 317.493L628.966 316.771L628.806 316.407M630.067 319.271L594.602 319.271M666.143 322.037L666.217 322.376L666.292 322.713L666.366 323.049L666.731 324.708M666.143 322.037L631.286 322.037M666.143 322.037L701 322.037M631.286 322.037L596.428 322.037M631.286 322.037L631.584 322.713L631.732 323.049L631.879 323.384L632.318 324.379L632.463 324.708M222.977 46.2278L127.373 46.2278M222.977 46.2278L244.48 65.7533M222.977 46.2278L318.581 46.2278M222.977 46.2278L199.348 24.7718M127.373 46.2278L153.176 65.7533M127.373 46.2278L99.0186 24.7718M127.373 46.2278L31.7679 46.2278M244.48 65.7533L153.176 65.7533M244.48 65.7533L335.784 65.7533M244.48 65.7533L264.131 83.5978M153.176 65.7533L176.758 83.5978M153.176 65.7533L61.8717 65.7533M298.761 115.043L218.313 115.043M298.761 115.043L314.096 128.968M298.761 115.043L379.209 115.043M298.761 115.043L282.161 99.9695M218.313 115.043L236.715 128.968M218.313 115.043L198.393 99.9695M218.313 115.043L137.866 115.043M314.096 128.968L236.715 128.968M314.096 128.968L391.477 128.968M314.096 128.968L328.305 141.87M236.715 128.968L253.765 141.87M236.715 128.968L159.334 128.968M353.804 165.026L284.365 165.026M353.804 165.026L365.29 175.454M353.804 165.026L423.244 165.026M353.804 165.026L341.506 153.858M284.365 165.026L298.147 175.454M284.365 165.026L269.607 153.858M284.365 165.026L214.927 165.026M365.29 175.454L298.147 175.454M365.29 175.454L432.432 175.454M365.29 175.454L376.039 185.215M298.147 175.454L311.046 185.215M298.147 175.454L231.005 175.454M395.596 202.975L334.516 202.975M395.596 202.975L404.518 211.076M395.596 202.975L456.677 202.975M395.596 202.975L386.121 194.37M334.516 202.975L345.222 211.076M334.516 202.975L323.145 194.37M334.516 202.975L273.435 202.975M404.518 211.076L345.222 211.076M404.518 211.076L463.815 211.076M404.518 211.076L412.934 218.718M345.222 211.076L355.321 218.718M345.222 211.076L285.926 211.076M428.409 232.77L373.89 232.77M428.409 232.77L435.539 239.244M428.409 232.77L482.927 232.77M428.409 232.77L420.885 225.938M373.89 232.77L382.446 239.244M373.89 232.77L364.862 225.938M373.89 232.77L319.371 232.77M435.539 239.244L382.446 239.244M435.539 239.244L488.631 239.244M435.539 239.244L442.305 245.389M382.446 239.244L390.566 245.389M382.446 239.244L329.354 239.244M454.854 256.784L405.625 256.784M454.854 256.784L460.682 262.076M454.854 256.784L504.083 256.784M454.854 256.784L448.735 251.228M405.625 256.784L412.619 262.076M405.625 256.784L398.282 251.228M405.625 256.784L356.396 256.784M460.682 262.076L412.619 262.076M460.682 262.076L508.746 262.076M460.682 262.076L466.241 267.124M412.619 262.076L419.29 267.124M412.619 262.076L364.556 262.076M476.622 276.55L476 275.985L475.374 275.418L471.549 271.944M476.622 276.55L431.746 276.55M476.622 276.55L481.475 280.957M476.622 276.55L521.497 276.55M431.746 276.55L437.57 280.957M431.746 276.55L425.659 271.944M431.746 276.55L386.87 276.55M481.475 280.957L437.57 280.957M481.475 280.957L525.38 280.957M481.475 280.957L486.123 285.178M437.57 280.957L443.148 285.178M437.57 280.957L393.665 280.957M494.853 293.104L453.623 293.104M494.853 293.104L498.957 296.831M494.853 293.104L536.082 293.104M494.853 293.104L490.579 289.223M453.623 293.104L456.725 295.451L458.548 296.831M453.623 293.104L448.494 289.223M453.623 293.104L412.393 293.104M498.957 296.831L458.548 296.831M498.957 296.831L539.365 296.831M498.957 296.831L502.415 299.973L502.9 300.412M458.548 296.831L463.28 300.412M458.548 296.831L418.139 296.831M510.343 307.171L472.212 307.171M510.343 307.171L511.234 307.981L513.859 310.363M510.343 307.171L548.474 307.171M510.343 307.171L509.444 306.354L507.618 304.697L506.693 303.857M472.212 307.171L476.431 310.363M472.212 307.171L470.589 305.943L469.494 305.114L467.832 303.857M472.212 307.171L434.081 307.171M513.859 310.363L476.431 310.363M513.859 310.363L551.288 310.363M513.859 310.363L516.412 312.682L517.248 313.44M476.431 310.363L477.973 311.53L478.99 312.3L480.497 313.44M476.431 310.363L439.003 310.363M523.669 319.271L488.202 319.271M523.669 319.271L525.585 321.011L526.714 322.037M523.669 319.271L559.135 319.271M523.669 319.271L520.515 316.407M488.202 319.271L490.956 321.354L491.407 321.696L491.857 322.037M488.202 319.271L486.327 317.852L484.418 316.407M488.202 319.271L452.737 319.271M526.714 322.037L491.857 322.037M526.714 322.037L528.198 323.384L528.93 324.049L529.294 324.379L529.656 324.708M526.714 322.037L561.571 322.037M491.857 322.037L457 322.037M491.857 322.037L495.388 324.708M4.57259 128.968L81.9533 128.968M4.57259 128.968L30.1472 141.87M4.57259 128.968L-18.6125 128.968M4.57259 128.968L-18.6125 117.272M76.048 165.026L6.60909 165.026M76.048 165.026L96.7204 175.454M76.048 165.026L145.487 165.026M76.048 165.026L53.9109 153.858M6.60909 165.026L29.5783 175.454M6.60909 165.026L-17.9881 153.858M6.60909 165.026L-18.6125 165.026M96.7204 175.454L29.5783 175.454M96.7204 175.454L163.862 175.454M96.7204 175.454L116.07 185.215M29.5783 175.454L51.0775 185.215M29.5783 175.454L-18.6125 175.454M151.274 202.975L90.1929 202.975M151.274 202.975L167.333 211.076M151.274 202.975L212.355 202.975M151.274 202.975L134.217 194.37M90.1929 202.975L108.036 211.076M90.1929 202.975L71.2416 194.37M90.1929 202.975L29.112 202.975M167.333 211.076L108.036 211.076M167.333 211.076L226.629 211.076M167.333 211.076L182.481 218.718M108.036 211.076L124.868 218.718M108.036 211.076L48.7402 211.076M210.335 232.77L155.817 232.77M210.335 232.77L223.169 239.244M210.335 232.77L264.853 232.77M210.335 232.77L196.792 225.938M155.817 232.77L170.077 239.244M155.817 232.77L140.769 225.938M155.817 232.77L101.298 232.77M223.169 239.244L170.077 239.244M223.169 239.244L276.261 239.244M223.169 239.244L235.349 245.389M170.077 239.244L183.611 245.389M170.077 239.244L116.985 239.244M257.937 256.784L208.708 256.784M257.937 256.784L268.428 262.076M257.937 256.784L307.166 256.784M257.937 256.784L246.924 251.228M208.708 256.784L220.365 262.076M208.708 256.784L196.471 251.228M208.708 256.784L159.479 256.784M268.428 262.076L220.365 262.076M268.428 262.076L316.492 262.076M268.428 262.076L278.434 267.124M220.365 262.076L231.483 267.124M220.365 262.076L172.301 262.076M297.119 276.55L252.244 276.55M297.119 276.55L305.856 280.957M297.119 276.55L341.995 276.55M297.119 276.55L287.988 271.944M252.244 276.55L261.951 280.957M252.244 276.55L242.098 271.944M252.244 276.55L207.368 276.55M305.856 280.957L261.951 280.957M305.856 280.957L349.76 280.957M305.856 280.957L314.222 285.178M261.951 280.957L271.247 285.178M261.951 280.957L218.046 280.957M329.935 293.104L288.705 293.104M329.935 293.104L337.322 296.831M329.935 293.104L371.164 293.104M329.935 293.104L322.241 289.223M288.705 293.104L296.913 296.831M288.705 293.104L280.156 289.223M288.705 293.104L247.475 293.104M337.322 296.831L296.913 296.831M337.322 296.831L377.731 296.831M337.322 296.831L344.421 300.412M296.913 296.831L304.801 300.412M296.913 296.831L256.504 296.831M357.818 307.171L319.687 307.171M357.818 307.171L364.146 310.363M357.818 307.171L395.949 307.171M357.818 307.171L356.198 306.354L355.384 305.943L351.247 303.857M319.687 307.171L326.718 310.363M319.687 307.171L312.386 303.857M319.687 307.171L281.556 307.171M364.146 310.363L326.718 310.363M364.146 310.363L401.574 310.363M364.146 310.363L370.245 313.44M326.718 310.363L333.495 313.44M326.718 310.363L289.29 310.363M381.804 319.271L346.338 319.271M381.804 319.271L387.286 322.037M381.804 319.271L417.27 319.271M381.804 319.271L376.127 316.407M346.338 319.271L350.926 321.354L351.678 321.696L352.429 322.037M346.338 319.271L340.03 316.407M346.338 319.271L310.872 319.271M387.286 322.037L352.429 322.037M387.286 322.037L391.929 324.379L392.582 324.708M387.286 322.037L422.143 322.037M352.429 322.037L317.571 322.037M352.429 322.037L358.313 324.708M-7.73818 232.77L10.8002 239.244M-7.73818 232.77L46.7801 232.77M-7.73818 232.77L-18.6125 228.972M-7.73818 232.77L-18.6125 232.77M10.8002 239.244L63.8926 239.244M10.8002 239.244L28.3931 245.389M10.8002 239.244L-18.6125 239.244M61.0201 256.784L11.7903 256.784M61.0201 256.784L76.1747 262.076M61.0201 256.784L110.249 256.784M61.0201 256.784L45.1121 251.228M11.7903 256.784L28.1106 262.076M11.7903 256.784L-5.3409 251.228M11.7903 256.784L-18.6126 256.784M76.1747 262.076L28.1106 262.076M76.1747 262.076L124.238 262.076M76.1747 262.076L90.6277 267.124M28.1106 262.076L43.6759 267.124M28.1106 262.076L-18.6126 262.076M117.617 276.55L72.7408 276.55M117.617 276.55L130.236 280.957M117.617 276.55L162.492 276.55M117.617 276.55L104.427 271.944M72.7408 276.55L86.331 280.957M72.7408 276.55L58.5374 271.944M72.7408 276.55L27.8654 276.55M130.236 280.957L86.331 280.957M130.236 280.957L174.141 280.957M130.236 280.957L142.321 285.178M86.331 280.957L99.3447 285.178M86.331 280.957L42.4256 280.957M165.017 293.104L123.788 293.104M165.017 293.104L175.687 296.831M165.017 293.104L206.246 293.104M165.017 293.104L153.904 289.223M123.788 293.104L135.278 296.831M123.788 293.104L111.819 289.223M123.788 293.104L82.5575 293.104M175.687 296.831L135.278 296.831M175.687 296.831L216.096 296.831M175.687 296.831L185.941 300.412M135.278 296.831L146.321 300.412M135.278 296.831L94.8696 296.831M205.293 307.171L167.161 307.171M205.293 307.171L214.433 310.363M205.293 307.171L243.424 307.171M205.293 307.171L195.802 303.857M167.161 307.171L177.005 310.363M167.161 307.171L156.941 303.856M167.161 307.171L129.03 307.171M214.433 310.363L177.005 310.363M214.433 310.363L251.862 310.363M214.433 310.363L223.243 313.44M177.005 310.363L186.493 313.44M177.005 310.363L139.577 310.363M239.939 319.271L204.473 319.271M239.939 319.271L247.857 322.037M239.939 319.271L275.405 319.271M239.939 319.271L231.74 316.407M204.473 319.271L213 322.037M204.473 319.271L195.642 316.407M204.473 319.271L169.006 319.271M247.857 322.037L213 322.037M247.857 322.037L255.507 324.708M247.857 322.037L282.714 322.037M213 322.037L178.142 322.037M213 322.037L221.239 324.708M0.0989837 293.104L14.0526 296.831M0.0989837 293.104L41.3282 293.104M0.0989837 293.104L-14.4335 289.223M0.0989837 293.104L-18.6126 293.104M14.0526 296.831L54.4612 296.831M14.0526 296.831L27.4614 300.412M14.0526 296.831L-18.6126 296.831M52.7678 307.171L14.6365 307.171M52.7678 307.171L64.7209 310.363M52.7678 307.171L90.8991 307.171M52.7678 307.171L40.3567 303.856M14.6365 307.171L27.2928 310.363M14.6365 307.171L1.49534 303.856M14.6365 307.171L-18.6126 307.171M64.7209 310.363L27.2928 310.363M64.7209 310.363L102.149 310.363M64.7209 310.363L76.2414 313.44M27.2928 310.363L39.4909 313.44M27.2928 310.363L-10.1354 310.363M98.0741 319.271L62.6078 319.271M98.0741 319.271L108.428 322.037M98.0741 319.271L133.541 319.271M98.0741 319.271L87.3519 316.407M62.6078 319.271L73.5714 322.037M62.6078 319.271L51.2551 316.407M62.6078 319.271L27.1413 319.271M108.428 322.037L73.5714 322.037M108.428 322.037L118.432 324.708M108.428 322.037L143.285 322.037M73.5714 322.037L38.7136 322.037M73.5714 322.037L84.1639 324.708M51.2551 316.407L39.4909 313.44M51.2551 316.407L15.1576 316.407M51.2551 316.407L87.3519 316.407M27.1413 319.271L38.7136 322.037M27.1413 319.271L15.1576 316.407M27.1413 319.271L-8.32435 319.271M38.7136 322.037L3.85663 322.037M38.7136 322.037L49.8953 324.708M84.1639 324.708L118.432 324.708M84.1639 324.708L49.8953 324.708M84.1639 324.708L94.4049 327.292M15.1576 316.407L2.73975 313.44M15.1576 316.407L-18.6126 316.407M-8.32435 319.271L3.85663 322.037M-8.32435 319.271L-18.6126 316.936M-8.32435 319.271L-18.6126 319.271M3.85663 322.037L15.6268 324.708M3.85663 322.037L-18.6126 322.037M49.8953 324.708L15.6268 324.708M49.8953 324.708L60.7053 327.292M15.6268 324.708L27.0057 327.292M15.6268 324.708L-18.6126 324.708M39.4909 313.44L2.73975 313.44M39.4909 313.44L76.2414 313.44M-10.1354 310.363L2.73975 313.44M-10.1354 310.363L-18.6126 308.338M-10.1354 310.363L-18.6126 310.363M2.73975 313.44L-18.6126 313.44M76.2414 313.44L112.992 313.44M76.2414 313.44L87.3519 316.407M87.3519 316.407L123.449 316.407M1.49534 303.856L-12.1585 300.412M1.49534 303.856L40.3567 303.856M1.49534 303.856L-18.6126 303.856M-18.7287 307.171L-18.6126 307.171M-12.1585 300.412L27.4614 300.412M-12.1585 300.412L-18.6126 298.784M-12.1585 300.412L-18.6126 300.412M27.4614 300.412L67.0813 300.412M27.4614 300.412L40.3567 303.856M40.3567 303.856L79.2181 303.856M195.642 316.407L186.493 313.44M195.642 316.407L159.546 316.407M195.642 316.407L231.74 316.407M169.006 319.271L178.142 322.037M169.006 319.271L159.546 316.407M169.006 319.271L133.541 319.271M178.142 322.037L143.285 322.037M178.142 322.037L186.97 324.708M221.239 324.708L186.97 324.708M221.239 324.708L229.204 327.292M221.239 324.708L255.507 324.708M159.546 316.407L149.742 313.44M159.546 316.407L123.449 316.407M133.541 319.271L143.285 322.037M133.541 319.271L123.449 316.407M143.285 322.037L152.701 324.708M186.97 324.708L152.701 324.708M186.97 324.708L195.504 327.292M123.449 316.407L112.992 313.44M118.432 324.708L152.701 324.708M118.432 324.708L128.105 327.292M152.701 324.708L161.805 327.292M186.493 313.44L149.742 313.44M186.493 313.44L223.243 313.44M139.577 310.363L149.742 313.44M139.577 310.363L129.03 307.171M139.577 310.363L102.149 310.363M149.742 313.44L112.992 313.44M223.243 313.44L259.994 313.44M223.243 313.44L231.74 316.407M112.992 313.44L102.149 310.363M231.74 316.407L267.837 316.407M129.03 307.171L118.079 303.856M129.03 307.171L90.8991 307.171M102.149 310.363L90.8991 307.171M90.8991 307.171L79.2181 303.856M156.941 303.856L146.321 300.412M156.941 303.856L118.079 303.856M156.941 303.856L195.802 303.857M118.079 303.856L106.701 300.412M118.079 303.856L79.2181 303.856M79.2181 303.856L67.0813 300.412M146.321 300.412L106.701 300.412M146.321 300.412L185.941 300.412M94.8696 296.831L106.701 300.412M94.8696 296.831L82.5575 293.104M94.8696 296.831L54.4612 296.831M106.701 300.412L67.0813 300.412M185.941 300.412L225.561 300.412M185.941 300.412L195.802 303.857M67.0813 300.412L54.4612 296.831M195.802 303.857L234.663 303.857M82.5575 293.104L69.7349 289.223M82.5575 293.104L41.3282 293.104M54.4612 296.831L41.3282 293.104M41.3282 293.104L27.6511 289.223M111.819 289.223L99.3447 285.178M111.819 289.223L69.7349 289.223M111.819 289.223L153.904 289.223M69.7349 289.223L56.3697 285.178M69.7349 289.223L27.6511 289.223M27.6511 289.223L13.3945 285.178M27.6511 289.223L-14.4335 289.223M-14.4335 289.223L-18.6126 289.223M-14.4335 289.223L-18.6126 288.107M99.3447 285.178L56.3697 285.178M99.3447 285.178L142.321 285.178M42.4256 280.957L56.3697 285.178M42.4256 280.957L27.8654 276.55M42.4256 280.957L-1.479 280.957M56.3697 285.178L13.3945 285.178M142.321 285.178L185.296 285.178M142.321 285.178L153.904 289.223M13.3945 285.178L-1.479 280.957M13.3945 285.178L-18.6126 285.178M153.904 289.223L195.988 289.223M27.8654 276.55L12.6472 271.944M27.8654 276.55L-17.0099 276.55M-1.479 280.957L-17.0099 276.55M-1.479 280.957L-18.6126 280.957M-18.8375 285.178L-18.6126 285.178M-17.0099 276.55L-18.6126 276.095M-17.0099 276.55L-18.6126 276.55M58.5374 271.944L43.6759 267.124M58.5374 271.944L12.6472 271.944M58.5374 271.944L104.427 271.944M12.6472 271.944L-3.27583 267.124M12.6472 271.944L-18.6126 271.944M-19 275.985L-18.6126 276.095M43.6759 267.124L-3.27583 267.124M43.6759 267.124L90.6277 267.124M-3.27583 267.124L-18.6126 267.124M-3.27583 267.124L-18.6126 262.482M90.6277 267.124L137.579 267.124M90.6277 267.124L104.427 271.944M104.427 271.944L150.317 271.944M-5.3409 251.228L45.1121 251.228M-5.3409 251.228L-18.6125 246.924M-5.3409 251.228L-18.6125 251.228M-18.9776 256.784L-18.6126 256.784M45.1121 251.228L95.5652 251.228M45.1121 251.228L28.3931 245.389M-18.7586 246.876L-18.6125 246.924M340.03 316.407L333.495 313.44M340.03 316.407L303.934 316.407M340.03 316.407L376.127 316.407M310.872 319.271L317.571 322.037M310.872 319.271L303.934 316.407M310.872 319.271L275.405 319.271M317.571 322.037L282.714 322.037M317.571 322.037L324.044 324.708M358.313 324.708L324.044 324.708M358.313 324.708L360.47 325.687L364.003 327.292M358.313 324.708L392.582 324.708M303.934 316.407L296.744 313.44M303.934 316.407L267.837 316.407M275.405 319.271L282.714 322.037M275.405 319.271L267.837 316.407M282.714 322.037L289.776 324.708M324.044 324.708L289.776 324.708M324.044 324.708L330.303 327.292M267.837 316.407L259.994 313.44M255.507 324.708L262.904 327.292M255.507 324.708L289.776 324.708M289.776 324.708L290.642 325.036L292.364 325.687L296.603 327.292M333.495 313.44L296.744 313.44M333.495 313.44L370.245 313.44M289.29 310.363L296.744 313.44M289.29 310.363L281.556 307.171M289.29 310.363L251.862 310.363M296.744 313.44L259.994 313.44M370.245 313.44L406.995 313.44M370.245 313.44L376.127 316.407M259.994 313.44L251.862 310.363M376.127 316.407L412.225 316.407M281.556 307.171L273.525 303.857M281.556 307.171L243.424 307.171M251.862 310.363L250.824 309.971L243.424 307.171M243.424 307.171L234.663 303.857M312.386 303.857L311.454 303.433L304.801 300.412M312.386 303.857L273.525 303.857M312.386 303.857L351.247 303.857M273.525 303.857L265.181 300.412M273.525 303.857L234.663 303.857M234.663 303.857L225.561 300.412M304.801 300.412L265.181 300.412M304.801 300.412L344.421 300.412M256.504 296.831L265.181 300.412M256.504 296.831L247.475 293.104M256.504 296.831L216.096 296.831M265.181 300.412L225.561 300.412M344.421 300.412L384.041 300.412M344.421 300.412L351.247 303.857M225.561 300.412L216.096 296.831M351.247 303.857L390.109 303.857M247.475 293.104L238.072 289.223M247.475 293.104L206.246 293.104M216.096 296.831L206.246 293.104M206.246 293.104L195.988 289.223M280.156 289.223L271.247 285.178M280.156 289.223L238.072 289.223M280.156 289.223L322.241 289.223M238.072 289.223L228.271 285.178M238.072 289.223L195.988 289.223M195.988 289.223L185.296 285.178M271.247 285.178L228.271 285.178M271.247 285.178L314.222 285.178M218.046 280.957L228.271 285.178M218.046 280.957L207.368 276.55M218.046 280.957L174.141 280.957M228.271 285.178L185.296 285.178M314.222 285.178L357.197 285.178M314.222 285.178L322.241 289.223M185.296 285.178L174.141 280.957M322.241 289.223L364.325 289.223M207.368 276.55L196.208 271.944M207.368 276.55L162.492 276.55M174.141 280.957L162.492 276.55M162.492 276.55L150.317 271.944M242.098 271.944L231.483 267.124M242.098 271.944L196.208 271.944M242.098 271.944L287.988 271.944M196.208 271.944L184.531 267.124M196.208 271.944L150.317 271.944M150.317 271.944L137.579 267.124M231.483 267.124L184.531 267.124M231.483 267.124L278.434 267.124M172.301 262.076L184.531 267.124M172.301 262.076L159.479 256.784M172.301 262.076L124.238 262.076M184.531 267.124L137.579 267.124M278.434 267.124L325.386 267.124M278.434 267.124L287.988 271.944M137.579 267.124L124.238 262.076M287.988 271.944L333.878 271.944M159.479 256.784L146.018 251.228M159.479 256.784L110.249 256.784M124.238 262.076L110.249 256.784M110.249 256.784L95.5652 251.228M196.471 251.228L183.611 245.389M196.471 251.228L146.018 251.228M196.471 251.228L246.924 251.228M146.018 251.228L131.871 245.389M146.018 251.228L95.5652 251.228M95.5652 251.228L80.1325 245.389M183.611 245.389L131.871 245.389M183.611 245.389L235.349 245.389M116.985 239.244L131.871 245.389M116.985 239.244L101.298 232.77M116.985 239.244L63.8926 239.244M131.871 245.389L80.1325 245.389M235.349 245.389L287.089 245.389M235.349 245.389L246.924 251.228M80.1325 245.389L63.8926 239.244M80.1325 245.389L28.3931 245.389M246.924 251.228L297.377 251.228M101.298 232.77L84.7463 225.938M101.298 232.77L46.7801 232.77M63.8926 239.244L46.7801 232.77M28.3931 245.389L-18.6125 245.389M46.7801 232.77L28.723 225.938M140.769 225.938L124.868 218.718M140.769 225.938L84.7463 225.938M140.769 225.938L196.792 225.938M84.7463 225.938L67.2545 218.718M84.7463 225.938L28.723 225.938M28.723 225.938L9.64134 218.718M28.723 225.938L-18.6125 225.938M124.868 218.718L67.2545 218.718M124.868 218.718L182.481 218.718M48.7402 211.076L67.2545 218.718M48.7402 211.076L29.112 202.975M48.7402 211.076L-10.5558 211.076M67.2545 218.718L9.64134 218.718M182.481 218.718L240.094 218.718M182.481 218.718L196.792 225.938M9.64134 218.718L-10.5558 211.076M9.64134 218.718L-18.6125 218.718M196.792 225.938L252.816 225.938M29.112 202.975L8.26579 194.37M29.112 202.975L-18.6125 202.975M-10.5558 211.076L-18.6125 211.076M-10.5558 211.076L-18.6125 208.028M71.2416 194.37L51.0775 185.215M71.2416 194.37L8.26579 194.37M71.2416 194.37L134.217 194.37M8.26579 194.37L-13.9148 185.215M8.26579 194.37L-18.6125 194.37M51.0775 185.215L-13.9148 185.215M51.0775 185.215L116.07 185.215M-13.9148 185.215L-18.6125 183.276M-13.9148 185.215L-18.6125 185.215M116.07 185.215L181.062 185.215M116.07 185.215L134.217 194.37M134.217 194.37L197.193 194.37M-17.9881 153.858L53.9109 153.858M-17.9881 153.858L-18.6125 153.858M-17.9881 153.858L-18.6125 153.575M53.9109 153.858L125.809 153.858M53.9109 153.858L30.1472 141.87M484.418 316.407L482.964 315.307L482.475 314.937L480.497 313.44M484.418 316.407L448.321 316.407M484.418 316.407L520.515 316.407M452.737 319.271L455.948 321.354L457 322.037M452.737 319.271L448.881 316.771L448.321 316.407M452.737 319.271L417.27 319.271M457 322.037L422.143 322.037M457 322.037L461.119 324.708M495.388 324.708L461.119 324.708M495.388 324.708L496.682 325.687L498.802 327.292M495.388 324.708L529.656 324.708M448.321 316.407L447.193 315.676L443.746 313.44M448.321 316.407L412.225 316.407M417.27 319.271L422.143 322.037M417.27 319.271L412.225 316.407M422.143 322.037L425.689 324.049L426.851 324.708M461.119 324.708L426.851 324.708M461.119 324.708L465.102 327.292M412.225 316.407L406.995 313.44M392.582 324.708L393.231 325.036L397.703 327.292M392.582 324.708L426.851 324.708M426.851 324.708L428.576 325.687L431.402 327.292M480.497 313.44L443.746 313.44M480.497 313.44L517.248 313.44M439.003 310.363L443.746 313.44M439.003 310.363L434.081 307.171M439.003 310.363L401.574 310.363M443.746 313.44L406.995 313.44M517.248 313.44L553.998 313.44M517.248 313.44L520.515 316.407M406.995 313.44L401.574 310.363M520.515 316.407L556.612 316.407M434.081 307.171L430.91 305.114L430.266 304.697L428.971 303.857M434.081 307.171L395.949 307.171M401.574 310.363L395.949 307.171M395.949 307.171L390.109 303.857M467.832 303.857L463.28 300.412M467.832 303.857L428.971 303.857M467.832 303.857L506.693 303.857M428.971 303.857L423.661 300.412M428.971 303.857L390.109 303.857M390.109 303.857L384.041 300.412M463.28 300.412L423.661 300.412M463.28 300.412L502.9 300.412M418.139 296.831L421.616 299.086L422.3 299.53L423.661 300.412M418.139 296.831L412.393 293.104M418.139 296.831L377.731 296.831M423.661 300.412L384.041 300.412M502.9 300.412L542.52 300.412M502.9 300.412L506.693 303.857M384.041 300.412L377.731 296.831M506.693 303.857L545.555 303.857M412.393 293.104L406.409 289.223M412.393 293.104L371.164 293.104M377.731 296.831L371.164 293.104M371.164 293.104L364.325 289.223M448.494 289.223L445.849 287.222L445.179 286.715L443.148 285.178M448.494 289.223L406.409 289.223M448.494 289.223L490.579 289.223M406.409 289.223L400.173 285.178M406.409 289.223L364.325 289.223M364.325 289.223L357.197 285.178M443.148 285.178L400.173 285.178M443.148 285.178L486.123 285.178M393.665 280.957L400.173 285.178M393.665 280.957L386.87 276.55M393.665 280.957L349.76 280.957M400.173 285.178L357.197 285.178M486.123 285.178L529.099 285.178M486.123 285.178L487.255 286.205L490.579 289.223M357.197 285.178L349.76 280.957M490.579 289.223L532.662 289.223M386.87 276.55L379.769 271.944M386.87 276.55L341.995 276.55M349.76 280.957L341.995 276.55M341.995 276.55L333.878 271.944M425.659 271.944L419.29 267.124M425.659 271.944L379.769 271.944M425.659 271.944L471.549 271.944M379.769 271.944L372.338 267.124M379.769 271.944L333.878 271.944M333.878 271.944L325.386 267.124M419.29 267.124L372.338 267.124M419.29 267.124L466.241 267.124M364.556 262.076L372.338 267.124M364.556 262.076L356.396 256.784M364.556 262.076L316.492 262.076M372.338 267.124L325.386 267.124M466.241 267.124L513.193 267.124M466.241 267.124L471.549 271.944M325.386 267.124L316.492 262.076M471.549 271.944L517.439 271.944M356.396 256.784L347.83 251.228M356.396 256.784L307.166 256.784M316.492 262.076L307.166 256.784M307.166 256.784L297.377 251.228M398.282 251.228L390.566 245.389M398.282 251.228L347.83 251.228M398.282 251.228L448.735 251.228M347.83 251.228L338.827 245.389M347.83 251.228L297.377 251.228M297.377 251.228L287.089 245.389M390.566 245.389L338.827 245.389M390.566 245.389L442.305 245.389M329.354 239.244L338.827 245.389M329.354 239.244L319.371 232.77M329.354 239.244L276.261 239.244M338.827 245.389L287.089 245.389M442.305 245.389L494.044 245.389M442.305 245.389L448.735 251.228M287.089 245.389L276.261 239.244M448.735 251.228L499.188 251.228M319.371 232.77L308.838 225.938M319.371 232.77L264.853 232.77M276.261 239.244L264.853 232.77M264.853 232.77L252.816 225.938M364.862 225.938L355.321 218.718M364.862 225.938L308.838 225.938M364.862 225.938L420.885 225.938M308.838 225.938L297.707 218.718M308.838 225.938L252.816 225.938M252.816 225.938L240.094 218.718M355.321 218.718L297.707 218.718M355.321 218.718L412.934 218.718M285.926 211.076L297.707 218.718M285.926 211.076L273.435 202.975M285.926 211.076L226.629 211.076M297.707 218.718L240.094 218.718M412.934 218.718L470.547 218.718M412.934 218.718L420.885 225.938M240.094 218.718L226.629 211.076M420.885 225.938L476.907 225.938M273.435 202.975L260.169 194.37M273.435 202.975L212.355 202.975M226.629 211.076L212.355 202.975M212.355 202.975L197.193 194.37M323.145 194.37L311.046 185.215M323.145 194.37L260.169 194.37M323.145 194.37L386.121 194.37M260.169 194.37L246.054 185.215M260.169 194.37L197.193 194.37M197.193 194.37L181.062 185.215M311.046 185.215L246.054 185.215M311.046 185.215L376.039 185.215M231.005 175.454L246.054 185.215M231.005 175.454L214.927 165.026M231.005 175.454L163.862 175.454M246.054 185.215L181.062 185.215M376.039 185.215L441.031 185.215M376.039 185.215L386.121 194.37M181.062 185.215L163.862 175.454M386.121 194.37L449.097 194.37M214.927 165.026L197.708 153.858M214.927 165.026L145.487 165.026M163.862 175.454L145.487 165.026M145.487 165.026L125.809 153.858M269.607 153.858L253.765 141.87M269.607 153.858L197.708 153.858M269.607 153.858L341.506 153.858M197.708 153.858L179.226 141.87M197.708 153.858L125.809 153.858M125.809 153.858L104.686 141.87M253.765 141.87L179.226 141.87M253.765 141.87L328.305 141.87M159.334 128.968L179.226 141.87M159.334 128.968L137.866 115.043M159.334 128.968L81.9533 128.968M179.226 141.87L104.686 141.87M328.305 141.87L402.844 141.87M328.305 141.87L341.506 153.858M104.686 141.87L81.9533 128.968M104.686 141.87L30.1472 141.87M341.506 153.858L413.405 153.858M137.866 115.043L114.625 99.9694M137.866 115.043L57.4183 115.043M81.9533 128.968L57.4183 115.043M30.1472 141.87L-18.6125 141.87M57.4183 115.043L30.8571 99.9694M57.4183 115.043L-18.6125 115.043M198.393 99.9695L176.758 83.5978M198.393 99.9695L114.625 99.9694M198.393 99.9695L282.161 99.9695M114.625 99.9694L89.3841 83.5978M114.625 99.9694L30.8571 99.9694M30.8571 99.9694L2.01033 83.5978M30.8571 99.9694L-18.6125 99.9694M176.758 83.5978L89.3841 83.5978M176.758 83.5978L264.131 83.5978M61.8717 65.7533L89.3841 83.5978M61.8717 65.7533L31.7679 46.2278M61.8717 65.7533L-18.6125 65.7533M89.3841 83.5978L2.01033 83.5978M264.131 83.5978L351.505 83.5978M264.131 83.5978L282.161 99.9695M2.01033 83.5978L-18.6125 83.5978M2.01033 83.5978L-18.6125 71.8935M282.161 99.9695L365.929 99.9695M31.7679 46.2278L-1.31185 24.7717M31.7679 46.2278L-18.6125 46.2278M99.0186 24.7718L67.7155 1.08416M99.0186 24.7718L-1.31185 24.7717M99.0186 24.7718L199.348 24.7718M-1.31185 24.7717L-18.6125 13.5501M-1.31185 24.7717L-18.6125 24.7717M67.7155 1.08416L173.263 1.08417M67.7155 1.08416L-18.6125 1.08461M173.263 1.08417L278.81 1.08418M173.263 1.08417L199.348 24.7718M199.348 24.7718L299.679 24.7718M628.806 316.407L628.645 316.042L628.484 315.676L628.321 315.307L628.159 314.937L627.665 313.817L627.499 313.44M628.806 316.407L592.709 316.407M628.806 316.407L664.903 316.407M594.602 319.271L595.978 321.354L596.428 322.037M594.602 319.271L593.426 317.493L592.709 316.407M594.602 319.271L559.135 319.271M596.428 322.037L561.571 322.037M596.428 322.037L597.758 324.049L598.194 324.708M632.463 324.708L632.607 325.036L633.178 326.333L633.601 327.292M632.463 324.708L598.194 324.708M632.463 324.708L666.731 324.708M592.709 316.407L592.468 316.042L592.225 315.676L591.982 315.307L591.737 314.937L590.749 313.44M592.709 316.407L556.612 316.407M559.135 319.271L560.97 321.354L561.571 322.037M559.135 319.271L556.612 316.407M561.571 322.037L562.759 323.384L563.636 324.379L563.925 324.708M598.194 324.708L598.41 325.036L598.841 325.687L599.268 326.333L599.479 326.654L599.901 327.292M598.194 324.708L563.925 324.708M556.612 316.407L554.66 314.192L553.998 313.44M529.656 324.708L531.799 326.654L532.501 327.292M529.656 324.708L563.925 324.708M563.925 324.708L565.92 326.974L566.202 327.292M627.499 313.44L590.749 313.44M627.499 313.44L664.249 313.44M588.716 310.363L590.749 313.44M588.716 310.363L586.606 307.171M588.716 310.363L551.288 310.363M590.749 313.44L553.998 313.44M664.249 313.44L701 313.44M664.249 313.44L664.903 316.407M553.998 313.44L551.288 310.363M664.903 316.407L701 316.407M586.606 307.171L586.066 306.354L585.247 305.114L584.416 303.857M586.606 307.171L548.474 307.171M551.288 310.363L550.941 309.971L548.474 307.171M548.474 307.171L548.116 306.764L547.755 306.354L547.393 305.943L545.555 303.857M623.277 303.857L621.76 300.412M623.277 303.857L584.416 303.857M623.277 303.857L662.139 303.857M584.416 303.857L582.14 300.412M584.416 303.857L545.555 303.857M545.555 303.857L543.29 301.286L542.906 300.85L542.52 300.412M621.76 300.412L582.14 300.412M621.76 300.412L661.38 300.412M579.774 296.831L579.472 296.373L579.167 295.914L578.862 295.451L577.311 293.104M579.774 296.831L580.969 298.64L581.264 299.086L581.557 299.53L582.14 300.412M579.774 296.831L539.365 296.831M582.14 300.412L542.52 300.412M661.38 300.412L701 300.412M661.38 300.412L662.139 303.857M542.52 300.412L539.365 296.831M662.139 303.857L701 303.857M577.311 293.104L575.073 289.717L574.747 289.223M577.311 293.104L536.082 293.104M539.365 296.831L538.556 295.914L536.082 293.104M536.082 293.104L534.816 291.668L532.662 289.223M616.832 289.223L615.949 287.222L615.727 286.715L615.049 285.178M616.832 289.223L574.747 289.223M616.832 289.223L658.915 289.223M574.747 289.223L572.074 285.178M574.747 289.223L532.662 289.223M532.662 289.223L529.099 285.178M615.049 285.178L572.074 285.178M615.049 285.178L658.025 285.178M569.285 280.957L572.074 285.178M569.285 280.957L566.373 276.55M569.285 280.957L525.38 280.957M572.074 285.178L529.099 285.178M658.025 285.178L701 285.178M658.025 285.178L658.251 286.205L658.696 288.228L658.915 289.223M529.099 285.178L525.38 280.957M658.915 289.223L701 289.223M566.373 276.55L564.103 273.115L563.329 271.944M566.373 276.55L521.497 276.55M525.38 280.957L521.497 276.55M521.497 276.55L519.491 274.273L517.439 271.944M609.219 271.944L607.097 267.124M609.219 271.944L563.329 271.944M609.219 271.944L655.11 271.944M563.329 271.944L560.145 267.124M563.329 271.944L517.439 271.944M517.439 271.944L513.193 267.124M607.097 267.124L560.145 267.124M607.097 267.124L654.048 267.124M556.809 262.076L557.658 263.36L560.145 267.124M556.809 262.076L553.312 256.784M556.809 262.076L508.746 262.076M560.145 267.124L513.193 267.124M654.048 267.124L701 267.124M654.048 267.124L655.11 271.944M513.193 267.124L508.746 262.076M655.11 271.944L701 271.944M553.312 256.784L549.641 251.228M553.312 256.784L504.083 256.784M508.746 262.076L504.083 256.784M504.083 256.784L499.188 251.228M600.094 251.228L597.522 245.389M600.094 251.228L549.641 251.228M600.094 251.228L650.547 251.228M549.641 251.228L545.783 245.389M549.641 251.228L499.188 251.228M499.188 251.228L494.044 245.389M597.522 245.389L545.783 245.389M597.522 245.389L649.261 245.389M541.723 239.244L545.783 245.389M541.723 239.244L537.445 232.77M541.723 239.244L488.631 239.244M545.783 245.389L494.044 245.389M649.261 245.389L701 245.389M649.261 245.389L650.39 250.514L650.547 251.228M494.044 245.389L488.631 239.244M650.547 251.228L701 251.228M537.445 232.77L532.931 225.938M537.445 232.77L482.927 232.77M488.631 239.244L484.382 234.421L482.927 232.77M482.927 232.77L476.907 225.938M588.954 225.938L585.774 218.718M588.954 225.938L532.931 225.938M588.954 225.938L644.977 225.938M532.931 225.938L528.16 218.718M532.931 225.938L476.907 225.938M476.907 225.938L470.547 218.718M585.774 218.718L528.16 218.718M585.774 218.718L643.387 218.718M523.111 211.076L528.16 218.718M523.111 211.076L517.758 202.975M523.111 211.076L463.815 211.076M528.16 218.718L470.547 218.718M643.387 218.718L701 218.718M643.387 218.718L644.977 225.938M470.547 218.718L463.815 211.076M644.977 225.938L701 225.938M517.758 202.975L512.073 194.37M517.758 202.975L456.677 202.975M463.815 211.076L456.677 202.975M456.677 202.975L449.097 194.37M575.048 194.37L571.015 185.215M575.048 194.37L512.073 194.37M575.048 194.37L638.024 194.37M512.073 194.37L506.023 185.215M512.073 194.37L449.097 194.37M449.097 194.37L441.031 185.215M571.015 185.215L506.023 185.215M571.015 185.215L636.008 185.215M499.574 175.454L506.023 185.215M499.574 175.454L492.683 165.026M499.574 175.454L432.432 175.454M506.023 185.215L441.031 185.215M636.008 185.215L701 185.215M636.008 185.215L638.024 194.37M441.031 185.215L432.432 175.454M638.024 194.37L701 194.37M492.683 165.026L485.304 153.858M492.683 165.026L423.244 165.026M432.432 175.454L423.244 165.026M423.244 165.026L413.405 153.858M557.203 153.858L551.922 141.87M557.203 153.858L485.304 153.858M557.203 153.858L629.101 153.858M485.304 153.858L477.383 141.87M485.304 153.858L413.405 153.858M413.405 153.858L402.844 141.87M551.922 141.87L477.383 141.87M551.922 141.87L626.461 141.87M468.858 128.968L477.383 141.87M468.858 128.968L459.657 115.043M468.858 128.968L391.477 128.968M477.383 141.87L402.844 141.87M626.461 141.87L701 141.87M626.461 141.87L629.101 153.858M402.844 141.87L391.477 128.968M629.101 153.858L701 153.858M459.657 115.043L449.696 99.9695M459.657 115.043L379.209 115.043M391.477 128.968L379.209 115.043M379.209 115.043L365.929 99.9695M533.464 99.9695L526.253 83.5978M533.464 99.9695L449.696 99.9695M533.464 99.9695L617.232 99.9695M449.696 99.9695L438.879 83.5978M449.696 99.9695L365.929 99.9695M365.929 99.9695L351.505 83.5978M526.253 83.5978L438.879 83.5978M526.253 83.5978L613.626 83.5978M427.088 65.7533L438.879 83.5978M427.088 65.7533L414.186 46.2278M427.088 65.7533L335.784 65.7533M438.879 83.5978L351.505 83.5978M613.626 83.5978L701 83.5978M613.626 83.5978L617.232 99.9695M351.505 83.5978L335.784 65.7533M617.232 99.9695L701 99.9695M414.186 46.2278L400.009 24.7718M414.186 46.2278L318.581 46.2278M335.784 65.7533L318.581 46.2278M318.581 46.2278L299.679 24.7718M500.34 24.7718L489.905 1.0842M500.34 24.7718L400.009 24.7718M500.34 24.7718L600.67 24.7718M400.009 24.7718L384.358 1.08419M400.009 24.7718L299.679 24.7718M299.679 24.7718L278.81 1.08418M384.358 1.08419L489.905 1.0842M384.358 1.08419L278.81 1.08418M489.905 1.0842L595.452 1.08421M595.452 1.08421L701 1.08421M595.452 1.08421L600.67 24.7718M600.67 24.7718L701 24.7718M773.194 316.407L773.355 316.042L773.516 315.676L773.679 315.307L773.841 314.937L774.17 314.192L774.335 313.817L774.501 313.44M773.194 316.407L737.097 316.407M773.194 316.407L809.291 316.407M736.466 319.271L735.857 322.037M736.466 319.271L737.097 316.407M736.466 319.271L701 319.271M735.857 322.037L735.783 322.376L735.708 322.713L735.634 323.049L735.268 324.708M735.857 322.037L701 322.037M769.537 324.708L769.393 325.036L768.822 326.333L768.399 327.292M769.537 324.708L735.268 324.708M769.537 324.708L803.806 324.708M737.097 316.407L737.178 316.042L737.258 315.676L737.34 315.307L737.75 313.44M737.097 316.407L701 316.407M701 319.271L701 322.037M701 319.271L701 316.407M701 322.037L701 324.708M735.268 324.708L701 324.708M735.268 324.708L735.053 325.687L734.981 326.011L734.7 327.292M701 316.407L701 313.44M666.731 324.708L666.946 325.687L667.018 326.011L667.089 326.333L667.16 326.654L667.23 326.974L667.3 327.292M666.731 324.708L701 324.708M701 324.708L701 327.292M774.501 313.44L737.75 313.44M774.501 313.44L811.251 313.44M738.428 310.363L738.515 309.971L738.601 309.577L739.131 307.171M738.428 310.363L737.75 313.44M738.428 310.363L701 310.363M737.75 313.44L701 313.44M811.251 313.44L848.002 313.44M811.251 313.44L810.755 314.192L810.508 314.565L810.263 314.937L810.017 315.307L809.775 315.676L809.532 316.042L809.291 316.407M701 313.44L701 310.363M809.291 316.407L845.388 316.407M739.131 307.171L739.861 303.857M739.131 307.171L701 307.171M701 310.363L701 307.171M701 307.171L701 303.857M778.723 303.857L780.24 300.412M778.723 303.857L739.861 303.857M778.723 303.857L817.584 303.857M739.861 303.857L740.62 300.412M739.861 303.857L701 303.857M701 303.857L701 300.412M780.24 300.412L740.62 300.412M780.24 300.412L819.86 300.412M741.408 296.831L740.62 300.412M741.408 296.831L742.229 293.105M741.408 296.831L701 296.831M740.62 300.412L701 300.412M819.86 300.412L859.48 300.412M819.86 300.412L817.584 303.857M701 300.412L701 296.831M817.584 303.857L856.445 303.857M742.229 293.105L742.546 291.668L742.867 290.209L743.085 289.223M742.229 293.105L701 293.105M701 296.831L701 293.105M701 293.105L701 289.223M785.168 289.223L786.051 287.222L786.273 286.715L786.951 285.178M785.168 289.223L743.085 289.223M785.168 289.223L827.253 289.223M743.085 289.223L743.303 288.228L743.749 286.205L743.975 285.178M743.085 289.223L701 289.223M701 289.223L701 285.178M786.951 285.178L743.975 285.178M786.951 285.178L829.926 285.178M744.905 280.957L744.787 281.495L743.975 285.178M744.905 280.957L745.875 276.55M744.905 280.957L701 280.957M743.975 285.178L701 285.178M829.926 285.178L872.901 285.178M829.926 285.178L827.253 289.223M701 285.178L701 280.957M827.253 289.223L869.338 289.223M745.875 276.55L746.89 271.944M745.875 276.55L701 276.55M701 280.957L701 276.55M701 276.55L701 271.944M792.781 271.944L794.903 267.124M792.781 271.944L746.89 271.944M792.781 271.944L838.671 271.944M746.89 271.944L747.952 267.124M746.89 271.944L701 271.944M701 271.944L701 267.124M794.903 267.124L747.952 267.124M794.903 267.124L841.855 267.124M749.063 262.076L747.952 267.124M749.063 262.076L750.229 256.784M749.063 262.076L701 262.076M747.952 267.124L701 267.124M841.855 267.124L888.807 267.124M841.855 267.124L838.671 271.944M701 267.124L701 262.076M838.671 271.944L884.561 271.944M750.229 256.784L751.453 251.228M750.229 256.784L701 256.784M701 262.076L701 256.784M701 256.784L701 251.228M801.906 251.228L804.478 245.389M801.906 251.228L751.453 251.228M801.906 251.228L852.358 251.228M751.453 251.228L752.739 245.389M751.453 251.228L701 251.228M701 251.228L701 245.389M804.478 245.389L752.739 245.389M804.478 245.389L856.217 245.389M754.092 239.244L752.739 245.389M754.092 239.244L755.518 232.77M754.092 239.244L701 239.244M752.739 245.389L701 245.389M856.217 245.389L907.956 245.389M856.217 245.389L852.358 251.228M701 245.389L701 239.244M852.358 251.228L902.812 251.228M755.518 232.77L757.023 225.938M755.518 232.77L701 232.77M701 239.244L701 232.77M701 232.77L701 225.938M813.046 225.938L816.226 218.718M813.046 225.938L757.023 225.938M813.046 225.938L869.069 225.938M757.023 225.938L758.613 218.718M757.023 225.938L701 225.938M701 225.938L701 218.718M816.226 218.718L758.613 218.718M816.226 218.718L873.84 218.718M760.296 211.076L758.613 218.718M760.296 211.076L762.081 202.975M760.296 211.076L701 211.076M758.613 218.718L701 218.718M873.84 218.718L931.453 218.718M873.84 218.718L869.069 225.938M701 218.718L701 211.076M869.069 225.938L925.093 225.938M762.081 202.975L763.976 194.37M762.081 202.975L701 202.975M701 211.076L701 202.975M701 202.975L701 194.37M826.952 194.37L830.984 185.215M826.952 194.37L763.976 194.37M826.952 194.37L889.927 194.37M763.976 194.37L765.992 185.215M763.976 194.37L701 194.37M701 194.37L701 185.215M830.984 185.215L765.992 185.215M830.984 185.215L895.977 185.215M768.142 175.454L765.992 185.215M768.142 175.454L770.439 165.026M768.142 175.454L701 175.454M765.992 185.215L701 185.215M895.977 185.215L960.969 185.215M895.977 185.215L889.927 194.37M701 185.215L701 175.454M889.927 194.37L952.903 194.37M770.439 165.026L772.899 153.858M770.439 165.026L701 165.026M701 175.454L701 165.026M701 165.026L701 153.858M844.797 153.858L850.078 141.87M844.797 153.858L772.899 153.858M844.797 153.858L916.696 153.858M772.899 153.858L775.539 141.87M772.899 153.858L701 153.858M701 153.858L701 141.87M850.078 141.87L775.539 141.87M850.078 141.87L924.617 141.87M778.381 128.968L775.539 141.87M778.381 128.968L781.447 115.043M778.381 128.968L701 128.968M775.539 141.87L701 141.87M924.617 141.87L999.156 141.87M924.617 141.87L916.696 153.858M701 141.87L701 128.968M916.696 153.858L988.595 153.858M781.447 115.043L784.768 99.9695M781.447 115.043L701 115.043M701 128.968L701 115.043M701 115.043L701 99.9695M868.535 99.9695L875.747 83.5978M868.535 99.9695L784.768 99.9695M868.535 99.9695L952.304 99.9695M784.768 99.9695L788.374 83.5978M784.768 99.9695L701 99.9695M701 99.9695L701 83.5978M875.747 83.5978L788.374 83.5978M875.747 83.5978L963.121 83.5978M792.304 65.7533L788.374 83.5978M792.304 65.7533L796.604 46.2279M792.304 65.7533L701 65.7533M788.374 83.5978L701 83.5978M963.121 83.5978L1050.49 83.5978M963.121 83.5978L952.304 99.9695M701 83.5978L701 65.7533M952.304 99.9695L1036.07 99.9695M796.604 46.2279L801.33 24.7718M796.604 46.2279L701 46.2279M701 65.7533L701 46.2279M701 46.2279L701 24.7718M901.66 24.7718L912.095 1.08423M901.66 24.7718L801.33 24.7718M901.66 24.7718L1001.99 24.7718M801.33 24.7718L806.548 1.08422M801.33 24.7718L701 24.7718M701 24.7718L701 1.08421M806.548 1.08422L912.095 1.08423M806.548 1.08422L701 1.08421M912.095 1.08423L1017.64 1.08424M1017.64 1.08424L1123.19 1.08425M1017.64 1.08424L1001.99 24.7718M1001.99 24.7718L1102.32 24.7718M917.582 316.407L919.525 314.937L921.503 313.44M917.582 316.407L881.485 316.407M917.582 316.407L953.678 316.408M878.331 319.271L875.286 322.037M878.331 319.271L881.485 316.407M878.331 319.271L842.865 319.271M875.286 322.037L840.429 322.037M875.286 322.037L873.07 324.049L872.343 324.708M906.612 324.708L872.343 324.708M906.612 324.708L905.318 325.687L903.198 327.292M906.612 324.708L940.881 324.708M881.485 316.407L884.752 313.44M881.485 316.407L845.388 316.407M842.865 319.271L840.429 322.037M842.865 319.271L845.388 316.407M840.429 322.037L839.241 323.384L838.364 324.379L838.075 324.708M872.343 324.708L838.075 324.708M872.343 324.708L870.201 326.654L869.499 327.292M845.388 316.407L847.34 314.192L848.002 313.44M803.806 324.708L803.59 325.036L803.159 325.687L802.521 326.654L802.099 327.292M803.806 324.708L838.075 324.708M838.075 324.708L837.786 325.036L837.212 325.687L835.799 327.292M921.503 313.44L884.752 313.44M921.503 313.44L958.254 313.44M888.141 310.363L887.71 310.754L887.282 311.143L885.588 312.682L884.752 313.44M888.141 310.363L890.765 307.981L891.657 307.171M888.141 310.363L850.712 310.363M884.752 313.44L848.002 313.44M958.254 313.44L995.004 313.44M958.254 313.44L954.807 315.676L953.678 316.408M848.002 313.44L850.712 310.363M953.678 316.408L989.776 316.408M891.657 307.171L892.105 306.764L892.556 306.354L893.921 305.114L894.382 304.697L895.307 303.857M891.657 307.171L853.526 307.171M850.712 310.363L851.059 309.971L853.526 307.171M853.526 307.171L853.884 306.764L854.245 306.354L854.607 305.943L856.445 303.857M934.168 303.857L938.719 300.412M934.168 303.857L895.307 303.857M934.168 303.857L973.029 303.857M895.307 303.857L899.1 300.412M895.307 303.857L856.445 303.857M856.445 303.857L859.48 300.412M938.719 300.412L899.1 300.412M938.719 300.412L978.339 300.412M903.043 296.831L899.1 300.412M903.043 296.831L907.147 293.105M903.043 296.831L862.635 296.831M899.1 300.412L859.48 300.412M978.339 300.412L1017.96 300.412M978.339 300.412L973.029 303.857M859.48 300.412L862.635 296.831M973.029 303.857L1011.89 303.857M907.147 293.105L911.421 289.223M907.147 293.105L865.918 293.105M862.635 296.831L863.443 295.914L865.918 293.105M865.918 293.105L867.184 291.668L868.47 290.209L869.338 289.223M953.506 289.223L956.151 287.222L958.852 285.178M953.506 289.223L911.421 289.223M953.506 289.223L995.591 289.223M911.421 289.223L915.877 285.178M911.421 289.223L869.338 289.223M869.338 289.223L872.901 285.178M958.852 285.178L915.877 285.178M958.852 285.178L1001.83 285.178M920.524 280.957L915.877 285.178M920.524 280.957L925.378 276.55M920.524 280.957L876.62 280.957M915.877 285.178L872.901 285.178M1001.83 285.178L1044.8 285.178M1001.83 285.178L995.591 289.223M872.901 285.178L876.62 280.957M995.591 289.223L1037.67 289.223M925.378 276.55L926.625 275.418L930.451 271.944M925.378 276.55L880.503 276.55M876.62 280.957L880.503 276.55M880.503 276.55L881 275.985L882.509 274.273L884.561 271.944M976.341 271.944L982.71 267.124M976.341 271.944L930.451 271.944M976.341 271.944L1022.23 271.944M930.451 271.944L935.759 267.124M930.451 271.944L884.561 271.944M884.561 271.944L888.807 267.124M982.71 267.124L935.759 267.124M982.71 267.124L1029.66 267.124M941.318 262.076L937.812 265.259L935.759 267.124M941.318 262.076L947.146 256.784M941.318 262.076L893.254 262.076M935.759 267.124L888.807 267.124M1029.66 267.124L1076.61 267.124M1029.66 267.124L1022.23 271.944M888.807 267.124L893.254 262.076M1022.23 271.944L1068.12 271.944M947.146 256.784L953.265 251.228M947.146 256.784L897.917 256.784M893.254 262.076L897.917 256.784M897.917 256.784L902.812 251.228M1003.72 251.228L1011.43 245.389M1003.72 251.228L953.265 251.228M1003.72 251.228L1054.17 251.228M953.265 251.228L959.695 245.389M953.265 251.228L902.812 251.228M902.812 251.228L907.956 245.389M1011.43 245.389L959.695 245.389M1011.43 245.389L1063.17 245.389M966.461 239.244L959.695 245.389M966.461 239.244L973.591 232.77M966.461 239.244L913.369 239.244M959.695 245.389L907.956 245.389M1063.17 245.389L1114.91 245.389M1063.17 245.389L1054.17 251.228M907.956 245.389L913.369 239.244M1054.17 251.228L1104.62 251.228M973.591 232.77L981.115 225.938M973.591 232.77L919.073 232.77M913.369 239.244L919.073 232.77M919.073 232.77L925.093 225.938M1037.14 225.938L1046.68 218.718M1037.14 225.938L981.115 225.938M1037.14 225.938L1093.16 225.938M981.115 225.938L989.066 218.718M981.115 225.938L925.093 225.938M925.093 225.938L931.453 218.718M1046.68 218.718L989.066 218.718M1046.68 218.718L1104.29 218.718M997.482 211.076L989.066 218.718M997.482 211.076L1006.4 202.975M997.482 211.076L938.185 211.076M989.066 218.718L931.453 218.718M1104.29 218.718L1161.91 218.718M1104.29 218.718L1093.16 225.938M931.453 218.718L938.185 211.076M1093.16 225.938L1149.18 225.938M1006.4 202.975L1015.88 194.37M1006.4 202.975L945.323 202.975M938.185 211.076L945.323 202.975M945.323 202.975L952.903 194.37M1078.85 194.37L1090.95 185.215M1078.85 194.37L1015.88 194.37M1078.85 194.37L1141.83 194.37M1015.88 194.37L1025.96 185.215M1015.88 194.37L952.903 194.37M952.903 194.37L960.969 185.215M1090.95 185.215L1025.96 185.215M1090.95 185.215L1155.95 185.215M1036.71 175.454L1025.96 185.215M1036.71 175.454L1048.2 165.026M1036.71 175.454L969.568 175.454M1025.96 185.215L960.969 185.215M1155.95 185.215L1220.94 185.215M1155.95 185.215L1141.83 194.37M960.969 185.215L969.568 175.454M1141.83 194.37L1204.81 194.37M1048.2 165.026L1060.49 153.858M1048.2 165.026L978.756 165.026M969.568 175.454L978.756 165.026M978.756 165.026L988.595 153.858M1132.39 153.858L1148.23 141.87M1132.39 153.858L1060.49 153.858M1132.39 153.858L1204.29 153.858M1060.49 153.858L1073.7 141.87M1060.49 153.858L988.595 153.858M988.595 153.858L999.156 141.87M1148.23 141.87L1073.7 141.87M1148.23 141.87L1222.77 141.87M1087.9 128.968L1073.7 141.87M1087.9 128.968L1103.24 115.043M1087.9 128.968L1010.52 128.968M1073.7 141.87L999.156 141.87M1222.77 141.87L1297.31 141.87M1222.77 141.87L1204.29 153.858M999.156 141.87L1010.52 128.968M1204.29 153.858L1276.19 153.858M1103.24 115.043L1119.84 99.9695M1103.24 115.043L1022.79 115.043M1010.52 128.968L1022.79 115.043M1022.79 115.043L1036.07 99.9695M1203.61 99.9695L1225.24 83.5979M1203.61 99.9695L1119.84 99.9695M1203.61 99.9695L1287.37 99.9695M1119.84 99.9695L1137.87 83.5979M1119.84 99.9695L1036.07 99.9695M1036.07 99.9695L1050.49 83.5978M1225.24 83.5979L1137.87 83.5979M1225.24 83.5979L1312.62 83.5979M1157.52 65.7534L1137.87 83.5979M1157.52 65.7534L1179.02 46.2279M1157.52 65.7534L1066.22 65.7534M1137.87 83.5979L1050.49 83.5978M1312.62 83.5979L1399.99 83.5979M1312.62 83.5979L1287.37 99.9695M1050.49 83.5978L1066.22 65.7534M1287.37 99.9695L1371.14 99.9696M1179.02 46.2279L1202.65 24.7718M1179.02 46.2279L1083.42 46.2279M1066.22 65.7534L1083.42 46.2279M1083.42 46.2279L1102.32 24.7718M1302.98 24.7719L1334.28 1.08427M1302.98 24.7719L1202.65 24.7718M1302.98 24.7719L1403.31 24.7719M1202.65 24.7718L1228.74 1.08426M1202.65 24.7718L1102.32 24.7718M1102.32 24.7718L1123.19 1.08425M1228.74 1.08426L1334.28 1.08427M1228.74 1.08426L1123.19 1.08425M1334.28 1.08427L1420.61 1.08472M1403.31 24.7719L1420.61 13.5502M1403.31 24.7719L1420.61 24.7719M1061.97 316.408L1068.51 313.44M1061.97 316.408L1025.87 316.408M1061.97 316.408L1098.07 316.408M1020.2 319.271L1014.71 322.037M1020.2 319.271L1025.87 316.408M1020.2 319.271L984.73 319.271M1014.71 322.037L979.857 322.037M1014.71 322.037L1009.42 324.708M1043.69 324.708L1009.42 324.708M1043.69 324.708L1041.53 325.687L1038 327.292M1043.69 324.708L1077.96 324.708M1025.87 316.408L1031.75 313.44M1025.87 316.408L989.776 316.408M984.73 319.271L979.857 322.037M984.73 319.271L989.776 316.408M979.857 322.037L976.311 324.049L975.149 324.708M1009.42 324.708L1008.77 325.036L1004.3 327.292M1009.42 324.708L975.149 324.708M989.776 316.408L995.004 313.44M940.881 324.708L936.898 327.292M940.881 324.708L975.149 324.708M975.149 324.708L973.424 325.687L970.597 327.292M1068.51 313.44L1031.75 313.44M1068.51 313.44L1105.26 313.44M1037.85 310.363L1031.75 313.44M1037.85 310.363L1044.18 307.171M1037.85 310.363L1000.43 310.363M1031.75 313.44L995.004 313.44M1105.26 313.44L1142.01 313.44M1105.26 313.44L1098.07 316.408M995.004 313.44L1000.43 310.363M1098.07 316.408L1134.16 316.408M1044.18 307.171L1045.8 306.354L1050.75 303.857M1044.18 307.171L1006.05 307.171M1000.43 310.363L1006.05 307.171M1006.05 307.171L1011.89 303.857M1089.61 303.857L1090.55 303.433L1097.2 300.412M1089.61 303.857L1050.75 303.857M1089.61 303.857L1128.48 303.857M1050.75 303.857L1057.58 300.412M1050.75 303.857L1011.89 303.857M1011.89 303.857L1012.64 303.433L1017.96 300.412M1097.2 300.412L1057.58 300.412M1097.2 300.412L1136.82 300.412M1064.68 296.831L1057.58 300.412M1064.68 296.831L1072.07 293.105M1064.68 296.831L1024.27 296.831M1057.58 300.412L1017.96 300.412M1136.82 300.412L1176.44 300.412M1136.82 300.412L1128.48 303.857M1017.96 300.412L1024.27 296.831M1128.48 303.857L1167.34 303.857M1072.07 293.105L1079.76 289.223M1072.07 293.105L1030.84 293.105M1024.27 296.831L1030.84 293.105M1030.84 293.105L1037.67 289.223M1121.84 289.223L1130.75 285.178M1121.84 289.223L1079.76 289.223M1121.84 289.223L1163.93 289.223M1079.76 289.223L1087.78 285.178M1079.76 289.223L1037.67 289.223M1037.67 289.223L1044.8 285.178M1130.75 285.178L1087.78 285.178M1130.75 285.178L1173.73 285.178M1096.14 280.957L1087.78 285.178M1096.14 280.957L1104.88 276.55M1096.14 280.957L1052.24 280.957M1087.78 285.178L1044.8 285.178M1173.73 285.178L1216.7 285.178M1173.73 285.178L1163.93 289.223M1044.8 285.178L1052.24 280.957M1163.93 289.223L1206.01 289.223M1104.88 276.55L1114.01 271.944M1104.88 276.55L1060 276.55M1052.24 280.957L1060 276.55M1060 276.55L1068.12 271.944M1159.9 271.944L1170.52 267.124M1159.9 271.944L1114.01 271.944M1159.9 271.944L1205.79 271.944M1114.01 271.944L1123.57 267.124M1114.01 271.944L1068.12 271.944M1068.12 271.944L1076.61 267.124M1170.52 267.124L1123.57 267.124M1170.52 267.124L1217.47 267.124M1133.57 262.076L1123.57 267.124M1133.57 262.076L1144.06 256.784M1133.57 262.076L1085.51 262.076M1123.57 267.124L1076.61 267.124M1217.47 267.124L1264.42 267.124M1217.47 267.124L1205.79 271.944M1076.61 267.124L1085.51 262.076M1205.79 271.944L1251.68 271.944M1144.06 256.784L1155.08 251.228M1144.06 256.784L1094.83 256.784M1085.51 262.076L1094.83 256.784M1094.83 256.784L1104.62 251.228M1205.53 251.228L1218.39 245.389M1205.53 251.228L1155.08 251.228M1205.53 251.228L1255.98 251.228M1155.08 251.228L1166.65 245.389M1155.08 251.228L1104.62 251.228M1104.62 251.228L1114.91 245.389M1218.39 245.389L1166.65 245.389M1218.39 245.389L1270.13 245.389M1178.83 239.245L1166.65 245.389M1178.83 239.245L1191.66 232.77M1178.83 239.245L1125.74 239.244M1166.65 245.389L1114.91 245.389M1270.13 245.389L1321.87 245.389M1270.13 245.389L1255.98 251.228M1114.91 245.389L1125.74 239.244M1255.98 251.228L1306.43 251.228M1191.66 232.77L1205.21 225.938M1191.66 232.77L1137.15 232.77M1125.74 239.244L1137.15 232.77M1137.15 232.77L1149.18 225.938M1261.23 225.938L1277.13 218.718M1261.23 225.938L1205.21 225.938M1261.23 225.938L1317.25 225.938M1205.21 225.938L1219.52 218.718M1205.21 225.938L1149.18 225.938M1149.18 225.938L1161.91 218.718M1277.13 218.718L1219.52 218.718M1277.13 218.718L1334.75 218.718M1234.67 211.076L1219.52 218.718M1234.67 211.076L1250.73 202.975M1234.67 211.076L1175.37 211.076M1219.52 218.718L1161.91 218.718M1334.75 218.718L1392.36 218.718M1334.75 218.718L1317.25 225.938M1161.91 218.718L1175.37 211.076M1317.25 225.938L1373.28 225.938M1250.73 202.975L1267.78 194.37M1250.73 202.975L1189.65 202.975M1175.37 211.076L1189.65 202.975M1189.65 202.975L1204.81 194.37M1330.76 194.37L1350.92 185.215M1330.76 194.37L1267.78 194.37M1330.76 194.37L1393.73 194.37M1267.78 194.37L1285.93 185.215M1267.78 194.37L1204.81 194.37M1204.81 194.37L1220.94 185.215M1350.92 185.215L1285.93 185.215M1350.92 185.215L1415.91 185.215M1305.28 175.454L1285.93 185.215M1305.28 175.454L1325.95 165.026M1305.28 175.454L1238.14 175.454M1285.93 185.215L1220.94 185.215M1415.91 185.215L1393.73 194.37M1415.91 185.215L1420.61 185.215M1415.91 185.215L1420.61 183.276M1220.94 185.215L1238.14 175.454M1393.73 194.37L1420.61 194.37M1325.95 165.026L1348.09 153.858M1325.95 165.026L1256.51 165.026M1238.14 175.454L1256.51 165.026M1256.51 165.026L1276.19 153.858M1419.99 153.858L1348.09 153.858M1419.99 153.858L1420.61 153.858M1419.99 153.858L1420.61 153.575M1348.09 153.858L1371.85 141.87M1348.09 153.858L1276.19 153.858M1276.19 153.858L1297.31 141.87M1397.43 128.968L1371.85 141.87M1397.43 128.968L1320.05 128.968M1397.43 128.968L1420.61 128.968M1397.43 128.968L1420.61 117.272M1371.85 141.87L1297.31 141.87M1371.85 141.87L1420.61 141.87M1297.31 141.87L1320.05 128.968M1320.05 128.968L1344.58 115.043M1344.58 115.043L1371.14 99.9696M1344.58 115.043L1420.61 115.043M1371.14 99.9696L1399.99 83.5979M1371.14 99.9696L1420.61 99.9696M1399.99 83.5979L1420.61 83.5979M1399.99 83.5979L1420.61 71.8936M1206.36 316.408L1215.51 313.44M1206.36 316.408L1170.26 316.408M1206.36 316.408L1242.45 316.408M1162.06 319.271L1154.14 322.037M1162.06 319.271L1170.26 316.408M1162.06 319.271L1126.59 319.271M1154.14 322.037L1119.29 322.037M1154.14 322.037L1146.49 324.708M1180.76 324.708L1146.49 324.708M1180.76 324.708L1172.8 327.292M1180.76 324.708L1215.03 324.708M1170.26 316.408L1178.76 313.44M1170.26 316.408L1134.16 316.408M1126.59 319.271L1119.29 322.037M1126.59 319.271L1134.16 316.408M1119.29 322.037L1112.22 324.708M1146.49 324.708L1145.55 325.036L1139.1 327.292M1146.49 324.708L1112.22 324.708M1134.16 316.408L1142.01 313.44M1077.96 324.708L1071.7 327.292M1077.96 324.708L1112.22 324.708M1112.22 324.708L1111.36 325.036L1105.4 327.292M1215.51 313.44L1178.76 313.44M1215.51 313.44L1252.26 313.44M1187.57 310.363L1178.76 313.44M1187.57 310.363L1196.71 307.171M1187.57 310.363L1150.14 310.363M1178.76 313.44L1142.01 313.44M1252.26 313.44L1289.01 313.44M1252.26 313.44L1242.45 316.408M1142.01 313.44L1150.14 310.363M1242.45 316.408L1278.55 316.408M1196.71 307.171L1206.2 303.857M1196.71 307.171L1158.58 307.171M1150.14 310.363L1151.18 309.971L1158.58 307.171M1158.58 307.171L1167.34 303.857M1245.06 303.857L1255.68 300.412M1245.06 303.857L1206.2 303.857M1245.06 303.857L1283.92 303.857M1206.2 303.857L1216.06 300.412M1206.2 303.857L1167.34 303.857M1167.34 303.857L1176.44 300.412M1255.68 300.412L1216.06 300.412M1255.68 300.412L1295.3 300.412M1226.31 296.831L1216.06 300.412M1226.31 296.831L1236.98 293.105M1226.31 296.831L1185.9 296.831M1216.06 300.412L1176.44 300.412M1295.3 300.412L1334.92 300.412M1295.3 300.412L1283.92 303.857M1176.44 300.412L1185.9 296.831M1283.92 303.857L1322.78 303.857M1236.98 293.105L1248.1 289.223M1236.98 293.105L1195.75 293.105M1185.9 296.831L1195.75 293.105M1195.75 293.105L1206.01 289.223M1290.18 289.223L1302.66 285.178M1290.18 289.223L1248.1 289.223M1290.18 289.223L1332.27 289.223M1248.1 289.223L1259.68 285.178M1248.1 289.223L1206.01 289.223M1206.01 289.223L1216.7 285.178M1302.66 285.178L1259.68 285.178M1302.66 285.178L1345.63 285.178M1271.76 280.957L1259.68 285.178M1271.76 280.957L1284.38 276.55M1271.76 280.957L1227.86 280.957M1259.68 285.178L1216.7 285.178M1345.63 285.178L1388.61 285.178M1345.63 285.178L1332.27 289.223M1216.7 285.178L1227.86 280.957M1332.27 289.223L1374.35 289.223M1284.38 276.55L1297.57 271.944M1284.38 276.55L1239.51 276.55M1227.86 280.957L1239.51 276.55M1239.51 276.55L1251.68 271.944M1343.46 271.944L1358.32 267.124M1343.46 271.944L1297.57 271.944M1343.46 271.944L1389.35 271.944M1297.57 271.944L1311.37 267.124M1297.57 271.944L1251.68 271.944M1251.68 271.944L1264.42 267.124M1358.32 267.124L1311.37 267.124M1325.83 262.076L1311.37 267.124M1325.83 262.076L1340.98 256.784M1325.83 262.076L1277.76 262.076M1311.37 267.124L1264.42 267.124M1264.42 267.124L1277.76 262.076M1389.35 271.944L1420.61 271.944M1340.98 256.784L1356.89 251.228M1340.98 256.784L1291.75 256.784M1277.76 262.076L1291.75 256.784M1291.75 256.784L1306.43 251.228M1407.34 251.228L1356.89 251.228M1407.34 251.228L1420.61 251.228M1407.34 251.228L1420.61 246.924M1356.89 251.228L1373.61 245.389M1356.89 251.228L1306.43 251.228M1306.43 251.228L1321.87 245.389M1391.2 239.245L1373.61 245.389M1391.2 239.245L1409.74 232.77M1391.2 239.245L1338.11 239.245M1391.2 239.245L1420.61 239.245M1373.61 245.389L1321.87 245.389M1373.61 245.389L1420.61 245.389M1321.87 245.389L1338.11 239.245M1420.76 246.877L1420.61 246.924M1409.74 232.77L1355.22 232.77M1409.74 232.77L1420.61 232.77M1409.74 232.77L1420.61 228.972M1338.11 239.245L1355.22 232.77M1355.22 232.77L1373.28 225.938M1373.28 225.938L1392.36 218.718M1373.28 225.938L1420.61 225.938M1412.56 211.076L1392.36 218.718M1412.56 211.076L1420.61 211.076M1412.56 211.076L1420.61 208.028M1392.36 218.718L1420.61 218.718M1350.74 316.408L1362.51 313.44M1350.74 316.408L1314.65 316.408M1350.74 316.408L1386.84 316.408M1303.93 319.271L1293.57 322.037M1303.93 319.271L1314.65 316.408M1303.93 319.271L1268.46 319.271M1293.57 322.037L1258.71 322.037M1293.57 322.037L1283.57 324.708M1317.84 324.708L1283.57 324.708M1317.84 324.708L1307.6 327.292M1317.84 324.708L1352.1 324.708M1314.65 316.408L1325.76 313.44M1314.65 316.408L1278.55 316.408M1268.46 319.271L1258.71 322.037M1268.46 319.271L1278.55 316.408M1258.71 322.037L1249.3 324.708M1283.57 324.708L1249.3 324.708M1283.57 324.708L1273.89 327.292M1278.55 316.408L1289.01 313.44M1215.03 324.708L1206.5 327.292M1215.03 324.708L1249.3 324.708M1249.3 324.708L1240.2 327.292M1362.51 313.44L1325.76 313.44M1362.51 313.44L1399.26 313.44M1337.28 310.363L1325.76 313.44M1337.28 310.363L1349.23 307.171M1337.28 310.363L1299.85 310.363M1325.76 313.44L1289.01 313.44M1399.26 313.44L1386.84 316.408M1399.26 313.44L1420.61 313.44M1289.01 313.44L1299.85 310.363M1386.84 316.408L1420.61 316.408M1349.23 307.171L1361.64 303.857M1349.23 307.171L1311.1 307.171M1299.85 310.363L1311.1 307.171M1311.1 307.171L1322.78 303.857M1400.5 303.857L1414.16 300.412M1400.5 303.857L1361.64 303.857M1400.5 303.857L1420.61 303.857M1361.64 303.857L1374.54 300.412M1361.64 303.857L1322.78 303.857M1322.78 303.857L1334.92 300.412M1387.95 296.831L1374.54 300.412M1387.95 296.831L1401.9 293.105M1387.95 296.831L1347.54 296.831M1387.95 296.831L1420.61 296.831M1374.54 300.412L1414.16 300.412M1374.54 300.412L1334.92 300.412M1414.16 300.412L1420.61 298.785M1414.16 300.412L1420.61 300.412M1334.92 300.412L1347.54 296.831M1401.9 293.105L1416.43 289.223M1401.9 293.105L1360.67 293.105M1401.9 293.105L1420.61 293.105M1347.54 296.831L1360.67 293.105M1360.67 293.105L1374.35 289.223M1416.43 289.223L1374.35 289.223M1416.43 289.223L1420.61 288.108M1416.43 289.223L1420.61 289.223M1374.35 289.223L1388.61 285.178M1403.48 280.957L1388.61 285.178M1403.48 280.957L1419.01 276.55M1403.48 280.957L1420.61 280.957M1388.61 285.178L1420.61 285.178M1420.84 285.178L1420.61 285.178M1419.01 276.55L1420.61 276.55M1419.01 276.55L1420.61 276.096M1421 275.986L1420.61 276.096M1410.32 319.271L1398.14 322.037M1410.32 319.271L1420.61 319.271M1410.32 319.271L1420.61 316.936M1398.14 322.037L1386.37 324.708M1398.14 322.037L1420.61 322.037M1352.1 324.708L1341.29 327.292M1352.1 324.708L1386.37 324.708M1386.37 324.708L1374.99 327.292M1386.37 324.708L1420.61 324.708M229.204 327.292L195.504 327.292M229.204 327.292L262.904 327.292M203.76 329.79L201.722 329.173L195.504 327.292M203.76 329.79L170.61 329.79M195.504 327.292L161.805 327.292M170.61 329.79L168.436 329.173L167.342 328.863L161.805 327.292M161.805 327.292L128.105 327.292M128.105 327.292L94.4049 327.292M262.904 327.292L296.603 327.292M94.4049 327.292L60.7053 327.292M60.7053 327.292L71.1629 329.79M60.7053 327.292L27.0057 327.292M71.1629 329.79L38.0135 329.79M364.003 327.292L330.303 327.292M364.003 327.292L397.703 327.292M336.357 329.79L334.863 329.173L334.11 328.863L330.303 327.292M336.357 329.79L303.208 329.79M330.303 327.292L296.603 327.292M303.208 329.79L296.603 327.292M397.703 327.292L431.402 327.292M498.802 327.292L465.102 327.292M498.802 327.292L532.501 327.292M468.955 329.79L468.48 329.483L468.004 329.173L467.525 328.863L465.102 327.292M468.955 329.79L435.806 329.79M465.102 327.292L431.402 327.292M435.806 329.79L431.402 327.292M532.501 327.292L566.202 327.292M633.601 327.292L599.901 327.292M633.601 327.292L667.3 327.292M601.552 329.79L599.901 327.292M601.552 329.79L568.402 329.79M599.901 327.292L566.202 327.292M568.402 329.79L568.131 329.483L567.859 329.173L567.585 328.863L566.202 327.292M667.3 327.292L701 327.292M768.399 327.292L734.7 327.292M768.399 327.292L802.099 327.292M734.149 329.79L734.7 327.292M734.149 329.79L701 329.79M734.7 327.292L701 327.292M701 329.79L701 327.292M802.099 327.292L835.799 327.292M903.198 327.292L869.499 327.292M903.198 327.292L936.898 327.292M866.747 329.79L867.426 329.173L868.802 327.924L869.499 327.292M866.747 329.79L833.598 329.79M869.499 327.292L835.799 327.292M833.598 329.79L833.869 329.483L834.141 329.173L834.415 328.863L835.799 327.292M936.898 327.292L970.597 327.292M1038 327.292L1004.3 327.292M1038 327.292L1071.7 327.292M999.344 329.79L1000.57 329.173L1001.18 328.863L1004.3 327.292M999.344 329.79L966.194 329.79M1004.3 327.292L970.597 327.292M966.194 329.79L966.737 329.483L970.597 327.292M1071.7 327.292L1105.4 327.292M1172.8 327.292L1139.1 327.292M1172.8 327.292L1206.5 327.292M1131.94 329.79L1133.71 329.173L1134.6 328.863L1139.1 327.292M1131.94 329.79L1098.79 329.79M1139.1 327.292L1105.4 327.292M1098.79 329.79L1099.61 329.483L1105.4 327.292M1206.5 327.292L1240.2 327.292M1307.6 327.292L1273.89 327.292M1307.6 327.292L1341.29 327.292M1264.54 329.79L1273.89 327.292M1264.54 329.79L1231.39 329.79M1273.89 327.292L1240.2 327.292M1231.39 329.79L1233.56 329.173L1234.66 328.863L1240.2 327.292M1341.29 327.292L1374.99 327.292M1397.14 329.79L1408.69 327.292M1397.14 329.79L1363.99 329.79M1397.14 329.79L1420.61 329.79M1408.69 327.292L1374.99 327.292M1408.69 327.292L1420.61 324.715M1408.69 327.292L1420.61 327.292M1363.99 329.79L1366.7 329.173L1374.99 327.292M38.0135 329.79L35.2955 329.173L27.0057 327.292M27.0057 327.292L-6.69396 327.292M-6.69396 327.292L-18.6126 324.715M-6.69396 327.292L-18.6126 327.292M-18.6125 208.028L-18.6125 211.076M-18.6125 208.028L-18.6125 202.975M-18.6125 211.076L-18.6125 218.718M-18.6125 202.975L-18.6125 201.465L-18.6125 194.37M-18.6125 194.37L-18.6125 185.215M-18.6126 267.124L-18.6126 271.944M-18.6126 267.124L-18.6126 262.482M-18.6126 329.79L-18.6126 327.292M-18.6126 327.292L-18.6126 324.715M-18.6126 324.715L-18.6417 324.708L-18.6126 324.708M-18.6126 324.715L-18.6126 324.708M-18.6126 324.708L-18.6126 322.037M-18.6126 322.037L-18.6126 319.271M-18.6126 319.271L-18.6126 316.936M-18.6126 316.936L-18.6126 316.407M-18.6126 316.407L-18.6126 313.44M-18.6126 313.44L-18.6126 310.363M-18.6126 310.363L-18.6126 308.338M-18.6126 308.338L-18.6126 307.171M-18.6126 307.171L-18.6126 303.856M-18.6126 303.856L-18.6126 300.412M-18.6126 300.412L-18.6126 298.784M-18.6126 298.784L-18.6126 296.831M-18.6126 296.831L-18.6126 293.104M-18.6126 293.104L-18.6126 289.223M-18.6126 289.223L-18.6126 288.107M-18.6126 288.107L-18.6126 285.178M-18.6126 285.178L-18.6126 280.957M-18.6126 280.957L-18.6126 276.55M-18.6126 276.55L-18.6126 276.095M-18.6126 276.095L-18.6126 271.944M-18.6126 262.076L-18.6126 256.784M-18.6126 262.076L-18.6126 262.482M-18.6126 256.784L-18.6125 251.228M-18.6125 251.228L-18.6125 246.924M-18.6125 246.924L-18.6125 245.389M-18.6125 245.389L-18.6125 239.244M-18.6125 239.244L-18.6125 232.77M-18.6125 232.77L-18.6125 228.972M-18.6125 228.972L-18.6125 225.938M-18.6125 225.938L-18.6125 218.718M-18.6125 185.215L-18.6125 183.276M-18.6125 183.276L-18.6125 175.454M-18.6125 175.454L-18.6125 165.026M-18.6125 165.026L-18.6125 153.858M-18.6125 153.858L-18.6125 153.575M-18.6125 153.575L-18.6125 141.87M-18.6125 141.87L-18.6125 128.968M-18.6125 128.968L-18.6125 117.272M-18.6125 117.272L-18.6125 115.043M-18.6125 115.043L-18.6125 99.9694M-18.6125 99.9694L-18.6125 83.5978M-18.6125 83.5978L-18.6125 71.8935M-18.6125 71.8935L-18.6125 65.7533M-18.6125 65.7533L-18.6125 46.2278M-18.6125 46.2278L-18.6125 24.7717M-18.6125 24.7717L-18.6125 13.5501M-18.6125 13.5501L-18.6125 1.08461M-18.6125 1.08461L-18.6125 1.00003L1420.61 1.00015L1420.61 1.08472M1420.61 262.076L1420.61 256.784M1420.61 262.076L1420.61 262.482M1420.61 262.482L1420.61 267.124M1420.61 267.124L1420.61 271.944M1420.61 271.944L1420.61 276.096M1420.61 276.096L1420.61 276.55M1420.61 276.55L1420.61 280.957M1420.61 280.957L1420.61 285.178M1420.61 285.178L1420.61 288.108M1420.61 288.108L1420.61 289.223M1420.61 289.223L1420.61 293.105M1420.61 293.105L1420.61 296.831M1420.61 296.831L1420.61 298.785M1420.61 298.785L1420.61 300.412M1420.61 300.412L1420.61 303.857M1420.61 303.857L1420.61 307.171M1420.61 307.171L1420.61 308.338M1420.61 308.338L1420.61 310.363M1420.61 310.363L1420.61 313.44M1420.61 313.44L1420.61 316.408M1420.61 316.408L1420.61 316.936M1420.61 316.936L1420.61 319.271M1420.61 319.271L1420.61 322.037M1420.61 322.037L1420.61 324.708M1420.61 324.708L1420.64 324.708L1420.61 324.715M1420.61 324.708L1420.61 324.715M1420.61 324.715L1420.61 327.292M1420.61 327.292L1420.61 329.79M1420.61 1.08472L1420.61 13.5502M1420.61 13.5502L1420.61 24.7719M1420.61 24.7719L1420.61 46.2275M1420.61 46.2275L1420.61 65.7534M1420.61 65.7534L1420.61 71.8936M1420.61 71.8936L1420.61 83.5979M1420.61 83.5979L1420.61 99.9696M1420.61 99.9696L1420.61 115.043M1420.61 115.043L1420.61 117.272M1420.61 117.272L1420.61 128.968M1420.61 128.968L1420.61 141.87M1420.61 141.87L1420.61 153.575M1420.61 153.575L1420.61 153.858M1420.61 153.858L1420.61 165.026M1420.61 165.026L1420.61 175.454M1420.61 175.454L1420.61 183.276M1420.61 183.276L1420.61 185.215M1420.61 185.215L1420.61 194.37M1420.61 194.37L1420.61 202.975M1420.61 202.975L1420.61 208.028M1420.61 208.028L1420.61 211.076M1420.61 211.076L1420.61 218.718M1420.61 218.718L1420.61 225.938M1420.61 225.938L1420.61 228.972M1420.61 228.972L1420.61 232.77M1420.61 232.77L1420.61 239.245M1420.61 239.245L1420.61 245.389M1420.61 245.389L1420.61 246.924M1420.61 246.924L1420.61 251.228M1420.61 251.228L1420.61 256.784" stroke="url(#paint0_linear_1863_7234)" stroke-width="0.870405" stroke-miterlimit="10" stroke-linecap="round" stroke-linejoin="round"/>
<defs>
<linearGradient id="paint0_linear_1863_7234" x1="701" y1="332.209" x2="701" y2="99.991" gradientUnits="userSpaceOnUse">
<stop stop-color="white"/>
<stop offset="1" stop-color="#E8E8E8"/>
</linearGradient>
</defs>
</svg>
