<svg width="91" height="51" viewBox="0 0 91 51" fill="none" xmlns="http://www.w3.org/2000/svg">
<path d="M77.6114 14.3531C77.0396 14.2578 76.444 14.234 75.8245 14.234H51.9991C51.332 14.234 50.6887 14.2816 50.0692 14.3769C50.4028 13.7098 50.8793 13.0904 51.4511 12.5185L59.1945 4.75147C62.4585 1.51123 67.7478 1.51123 71.0118 4.75147L75.1813 8.9686C76.7061 10.4696 77.5161 12.3756 77.6114 14.3531Z" fill="#ADEE92"/>
<path d="M82.6033 13.3206C82.0315 13.2253 81.4359 13.2015 80.8164 13.2015H56.991C56.3239 13.2015 55.6806 13.2491 55.0611 13.3445C55.3947 12.6773 55.8712 12.0579 56.443 11.4861L64.1863 3.719C67.4504 0.478758 72.7396 0.478758 76.0037 3.719L80.1731 7.93613C81.698 9.43712 82.508 11.3431 82.6033 13.3206Z" fill="#F8CA96"/>
<path d="M87.553 11.9794C87.0106 11.889 86.4457 11.8664 85.8581 11.8664H63.2589C62.6262 11.8664 62.016 11.9116 61.4284 12.002C61.7448 11.3693 62.1968 10.7817 62.7392 10.2393L70.084 2.872C73.18 -0.201473 78.197 -0.201473 81.2931 2.872L85.2479 6.87207C86.6942 8.29581 87.4626 10.1037 87.553 11.9794Z" fill="#AAE1FF"/>
<rect x="49.1502" y="10.8347" width="41.529" height="32.3137" rx="5.50349" fill="url(#paint0_linear_1863_5348)" stroke="#FFF48B" stroke-width="0.289054"/>
<path d="M81.6026 27.274C81.6026 25.3278 83.1804 23.75 85.1267 23.75H91.0001V30.7981H85.1267C83.1804 30.7981 81.6026 29.2203 81.6026 27.274Z" fill="#958B24"/>
<circle cx="85.3271" cy="27.4746" r="2.78467" fill="#958B24"/>
<path d="M9.29923 17.7745C10.9796 17.7745 12.3867 18.3251 13.5206 19.4263C14.6626 20.5276 15.2336 21.898 15.2336 23.5376C15.2336 25.1772 14.6626 26.5476 13.5206 27.6488C12.3867 28.75 10.9796 29.3006 9.29923 29.3006H5.21246V35.0637H1.74972V17.7745H9.29923ZM9.22582 26.0459C9.92734 26.0459 10.5106 25.8094 10.9755 25.3362C11.4405 24.855 11.673 24.2554 11.673 23.5376C11.673 22.8197 11.4405 22.2243 10.9755 21.7511C10.5106 21.2699 9.92734 21.0292 9.22582 21.0292H5.21246V26.0459H9.22582ZM26.4783 22.2895H29.7331V35.0637H26.4783V33.5342C25.3608 34.7578 23.9741 35.3696 22.3182 35.3696C20.5399 35.3696 19.0553 34.7293 17.8643 33.4486C16.6734 32.1679 16.0779 30.5772 16.0779 28.6766C16.0779 26.776 16.6734 25.1853 17.8643 23.9046C19.0553 22.624 20.5399 21.9836 22.3182 21.9836C23.9822 21.9836 25.369 22.5913 26.4783 23.8068V22.2895ZM22.9422 32.2128C23.9537 32.2128 24.7939 31.8742 25.4628 31.1972C26.1398 30.5201 26.4783 29.68 26.4783 28.6766C26.4783 27.6733 26.1398 26.8331 25.4628 26.156C24.7939 25.479 23.9537 25.1405 22.9422 25.1405C21.9388 25.1405 21.1027 25.479 20.4338 26.156C19.7649 26.8331 19.4305 27.6733 19.4305 28.6766C19.4305 29.68 19.7649 30.5201 20.4338 31.1972C21.1027 31.8742 21.9388 32.2128 22.9422 32.2128ZM41.7487 22.2895H45.3827L39.069 37.2906C38.7182 38.1635 38.1921 38.8527 37.4906 39.3585C36.7891 39.8724 36.0182 40.1294 35.178 40.1294C34.5989 40.1294 33.9993 40.0111 33.3793 39.7745C32.7676 39.538 32.2496 39.228 31.8254 38.8446L33.0735 36.2873C33.5058 36.7441 34.0238 36.9725 34.6274 36.9725C35.2881 36.9725 35.7735 36.6381 36.0835 35.9692L36.6096 34.8679L31.3971 22.2895H35.1046L38.445 30.977L41.7487 22.2895Z" fill="white"/>
<path d="M59.546 35.0637V17.7737H63.0089V35.0637H59.546ZM78.8794 17.7737V21.0286H73.887V35.0637H70.4364V21.0286H65.4194V17.7737H78.8794Z" fill="#0A0A0A"/>
<path d="M22.7117 46.7317C25.4403 48.7541 28.7628 49.9418 32.3421 49.9418C35.9214 49.9418 39.2439 48.7541 41.9725 46.7317" stroke="#ADEE92" stroke-width="1.67485" stroke-linecap="round"/>
<path d="M43.831 44.8613C44.1124 44.884 44.309 45.1498 44.2483 45.4255L43.5874 48.4309C43.5015 48.8214 42.9959 48.9293 42.7582 48.6078L40.3518 45.3545C40.1141 45.0331 40.3652 44.5812 40.7637 44.6134L43.831 44.8613Z" fill="#ADEE92"/>
<defs>
<linearGradient id="paint0_linear_1863_5348" x1="69.9147" y1="10.6902" x2="69.9147" y2="43.2929" gradientUnits="userSpaceOnUse">
<stop stop-color="#FFF48B"/>
<stop offset="1" stop-color="#958B24"/>
</linearGradient>
</defs>
</svg>
